/* XPM */
static char *result[] = {
/* columns rows colors chars-per-pixel */
"118 128 83 1 ",
"  c black",
". c #0E0E0E",
"X c #181818",
"o c #1D1D1D",
"O c gray17",
"+ c #313131",
"@ c #3A3A3A",
"# c #484848",
"$ c #555555",
"% c gray34",
"& c gray35",
"* c gray38",
"= c gray39",
"- c #656565",
"; c #6A6A6A",
": c #6C6C6C",
"> c #6F6F6F",
", c #717171",
"< c #727272",
"1 c gray45",
"2 c gray49",
"3 c gray51",
"4 c #848484",
"5 c #909090",
"6 c gray57",
"7 c #929292",
"8 c #939393",
"9 c gray58",
"0 c #959595",
"q c #979797",
"w c #989898",
"e c gray60",
"r c #9A9A9A",
"t c #9B9B9B",
"y c gray61",
"u c #9D9D9D",
"i c gray62",
"p c #9F9F9F",
"a c #A0A0A0",
"s c gray64",
"d c #A4A4A4",
"f c #A5A5A5",
"g c gray65",
"h c #A7A7A7",
"j c #AAAAAA",
"k c #ACACAC",
"l c gray68",
"z c #B2B2B2",
"x c gray70",
"c c gray71",
"v c #B6B6B6",
"b c gray72",
"n c #BBBBBB",
"m c #BCBCBC",
"M c gray",
"N c #C1C1C1",
"B c #C3C3C3",
"V c gray77",
"C c #C6C6C6",
"Z c #CACACA",
"A c #CDCDCD",
"S c #CECECE",
"D c gray81",
"F c #D0D0D0",
"G c #D2D2D2",
"H c LightGray",
"J c gray84",
"K c #D7D7D7",
"L c #D8D8D8",
"P c gray85",
"I c #DADADA",
"U c gainsboro",
"Y c #DDDDDD",
"T c gray87",
"R c #DFDFDF",
"E c gray88",
"W c #E1E1E1",
"Q c #E2E2E2",
"! c gray89",
"~ c #E4E4E4",
"^ c gray90",
"/ c #E6E6E6",
"( c None",
/* pixels */
"((((((((((((((((((((((((((((((((((((((((((((((((((((((((((((((((((((((((((((((((((((((((((((((((((((((((((((((((((((((",
"((((((((((((((((((((((((((((((((((((((((((((((((((((((((((((((((((((((((((((((((((((((((((((((((((((((((((((((((((((((",
"((((((((((((((((((((((((((((((((((((((((((((((((((((((((((((((((((((((((((((((((((((((((((((((((((((((((((((((((((((((",
"((((((((((((((((((((((((((((((((((((((((((((((((((((((((((((((((((((((((((((((((((((((((((((((((((((((((((((((((((((((",
"((((((((((((((((((((((((((((((((((((((((((((((((((((((((((((((((((((((((((((((((((((((((((((((((((((((((((((((((((((((",
"(((((((((((((((WYUILKJJJJJJJJ(((((((((((((((((WRUILKKJJJJJJJJJJJ(((((((((((((((((QRYULKKJJJJJJJ(((((((((((((((((((((((",
"(((((((((((((/////////////////J(((((((((((((!////////////////////H(((((((((((((~////////////////~(((((((((((((((((((((",
"(((((((((((((//////////////////(((((((((((((/////////////////////!(((((((((((((//////////////////n((((((((((((((((((((",
"((((((((((((W//////////////////(((((((((((((//////////////////////(((((((((((((//////////////////b((((((((((((((((((((",
"((((((((((((Y//////////////////(((((((((((((//////////////////////(((((((((((((//////////////////l((((((((((((((((((((",
"((((((((((((U////-@@@@@@@@5////:((((((((((((////m@@@@@@@@@@@@m////(((((((((((((////5@@@@@@@@-////d((((((((((((((((((((",
"((((((((((((I////@        1////=((((((((((((////l            l////(((((((((((((////1        @////i((((((((((((((((((((",
"((((((((((((L////@        1////zpflcMCAFGGFS////l            l////eisjxmBZDGGGL////1        @////w((((((((((((((((((((",
"((((((((((((K////@        1/////////////////////l            l/////////////////////1        @////0 (((((((((((((((((((",
"((((((((((((J////@        1/////////////////////l            l/////////////////////1        @////7 (((((((((((((((((((",
"((((((((((((J////@        %/////////////////////-            -/////////////////////%        @////7 (((((((((((((((((((",
"((((((((((((J////@         l///////////////////l.            .m///////////////////l         @////6 (((((((((((((((((((",
"((((((((((((J////@          o@@@@@@@@@@@@@@@@@O                O@@@@@@@@@@@@@@@@@o          @////6 (((((((((((((((((((",
"((((((((((((J////@                                                                          @////5 (((((((((((((((((((",
"((((((((((((J////@                                                                          @////5 (((((((((((((((((((",
"((((((((((((J////@                                                                          @////5 (((((((((((((((((((",
"((((((((((((J////@                                                                          @////5 (((((((((((((((((((",
"((((((((((((J////@                                                                          @////5 (((((((((((((((((((",
"((((((((((((J////////////////////////////////////////////////////////////////////////////////////6 (((((((((((((((((((",
"((((((((((((R////////////////////////////////////////////////////////////////////////////////////v (((((((((((((((((((",
"((((((((((((E////////////////////////////////////////////////////////////////////////////////////N (((((((((((((((((((",
"(((((((((((((////////////////////////////////////////////////////////////////////////////////////4 (((((((((((((((((((",
"(((((((((((((U//////BllllllllllllllllllllllllllllllllllllllllllllllllllllllllllllllllllllB//////b  (((((((((((((((((((",
"(((((((((((((((//////%                                                                  %//////1  ((((((((((((((((((((",
"(((((((((((((((k//////%                                                                %//////<   ((((((((((((((((((((",
"((((((((((((((((s//////%                                                              %//////<   (((((((((((((((((((((",
"(((((((((((((((((a//////%                                                            %//////<   ((((((((((((((((((((((",
"((((((((((((((((((u//////%                                                          %//////<   (((((((((((((((((((((((",
"(((((((((((((((((((t//////3111111111111111111111111111111111111111111111111111111113//////<    (((((((((((((((((((((((",
"((((((((((((((((((((r////////////////////////////////////////////////////////////////////<    ((((((((((((((((((((((((",
"(((((((((((((((((((((r//////////////////////////////////////////////////////////////////<    (((((((((((((((((((((((((",
"((((((((((((((((((((((r////////////////////////////////////////////////////////////////,    ((((((((((((((((((((((((((",
"(((((((((((((((((((((((////////////////////////////////////////////////////////////////    (((((((((((((((((((((((((((",
"(((((((((((((((((((((((////n@@@@@@@@@@@@@@@@@@@@@@@@@@@@@@@@@@@@@@@@@@@@@@@@@@@@@@n////   ((((((((((((((((((((((((((((",
"(((((((((((((((((((((((////l                                                      l////   ((((((((((((((((((((((((((((",
"(((((((((((((((((((((((////l                                                      l////  (((((((((((((((((((((((((((((",
"(((((((((((((((((((((((////l                                                      l////  (((((((((((((((((((((((((((((",
"(((((((((((((((((((((((////l                                                      l////  (((((((((((((((((((((((((((((",
"(((((((((((((((((((((((////l                                                      l////  (((((((((((((((((((((((((((((",
"(((((((((((((((((((((((////l                                                      l////  (((((((((((((((((((((((((((((",
"(((((((((((((((((((((((////l                                                      l////  (((((((((((((((((((((((((((((",
"(((((((((((((((((((((((////l                                                      l////  (((((((((((((((((((((((((((((",
"(((((((((((((((((((((((////l                                                      l////  (((((((((((((((((((((((((((((",
"(((((((((((((((((((((((////l                                                      l////  (((((((((((((((((((((((((((((",
"(((((((((((((((((((((((////l                                                      l////  (((((((((((((((((((((((((((((",
"(((((((((((((((((((((((////l                                                      l////  (((((((((((((((((((((((((((((",
"(((((((((((((((((((((((////l                                                      l////  (((((((((((((((((((((((((((((",
"(((((((((((((((((((((((////l                                                      l////  (((((((((((((((((((((((((((((",
"(((((((((((((((((((((((////l                                                      l////  (((((((((((((((((((((((((((((",
"(((((((((((((((((((((((////l                                                      l////  (((((((((((((((((((((((((((((",
"(((((((((((((((((((((((////l                                                      l////  (((((((((((((((((((((((((((((",
"(((((((((((((((((((((((////l                                                      l////  (((((((((((((((((((((((((((((",
"(((((((((((((((((((((((////l                                                      l////  (((((((((((((((((((((((((((((",
"(((((((((((((((((((((((////l                                                      l////  (((((((((((((((((((((((((((((",
"(((((((((((((((((((((((////l                                                      l////  (((((((((((((((((((((((((((((",
"(((((((((((((((((((((((////l                                                      l////  (((((((((((((((((((((((((((((",
"(((((((((((((((((((((((////l                                                      l////  (((((((((((((((((((((((((((((",
"(((((((((((((((((((((((////l                                                      l////  (((((((((((((((((((((((((((((",
"(((((((((((((((((((((((////l                                                      l////  (((((((((((((((((((((((((((((",
"(((((((((((((((((((((((////l                                                      l////  (((((((((((((((((((((((((((((",
"(((((((((((((((((((((((////l                                                      l////  (((((((((((((((((((((((((((((",
"(((((((((((((((((((((((////l                                                      l////  (((((((((((((((((((((((((((((",
"(((((((((((((((((((((((////l                                                      l////  (((((((((((((((((((((((((((((",
"(((((((((((((((((((((((////l                                                      l////  (((((((((((((((((((((((((((((",
"(((((((((((((((((((((((////l                                                      l////  (((((((((((((((((((((((((((((",
"(((((((((((((((((((((((////l                                                      l////  (((((((((((((((((((((((((((((",
"(((((((((((((((((((((((////l                                                      l////  (((((((((((((((((((((((((((((",
"(((((((((((((((((((((((////l                                                      l////  (((((((((((((((((((((((((((((",
"(((((((((((((((((((((((////l                                                      l////  (((((((((((((((((((((((((((((",
"(((((((((((((((((((((((////l                                                      l////  (((((((((((((((((((((((((((((",
"(((((((((((((((((((((((////m@@@@@@@@@@@@@@@@@@@@@@@@@@@@@@@@@@@@@@@@@@@@@@@@@@@@@@m////  (((((((((((((((((((((((((((((",
"(((((((((((((((((((((((////////////////////////////////////////////////////////////////  (((((((((((((((((((((((((((((",
"(((((((((((((((((((((((////////////////////////////////////////////////////////////////  (((((((((((((((((((((((((((((",
"(((((((((((((((((((((((////////////////////////////////////////////////////////////////X (((((((((((((((((((((((((((((",
"((((((((((((((((((((((L////////////////////////////////////////////////////////////////7 (((((((((((((((((((((((((((((",
"((((((((((((((((((((((/////g111111111111111111111111111111111111111111111111111111l/////+(((((((((((((((((((((((((((((",
"(((((((((((((((((((((Q////Z.                                                      .Z////V(((((((((((((((((((((((((((((",
"(((((((((((((((((((((/////#                                                        #/////>((((((((((((((((((((((((((((",
"((((((((((((((((((((^////l                                                          l////K((((((((((((((((((((((((((((",
"(((((((((((((((((((Y/////o                                                          o/////y(((((((((((((((((((((((((((",
"(((((((((((((((((((/////p@@@@@@@@@@@@@@@@@@@@@@@@@@@@@@@@@@@@@@@@@@@@@@@@@@@@@@@@@@@@p/////2((((((((((((((((((((((((((",
"(((((((((((((((((^//////////////////////////////////////////////////////////////////////////P,((((((((((((((((((((((((",
"((((((((((((((((^////////////////////////////////////////////////////////////////////////////H((((((((((((((((((((((((",
"((((((((((((((((//////////////////////////////////////////////////////////////////////////////((((((((((((((((((((((((",
"((((((((((((((((//////////////////////////////////////////////////////////////////////////////((((((((((((((((((((((((",
"((((((((((((((((////LllllllllllllllllllllllllllllllllllllllllllllllllllllllllllllllllllllL////((((((((((((((((((((((((",
"((((((((((((((((////l                                                                    l//// (((((((((((((((((((((((",
"((((((((((((((((////l                                                                    l//// (((((((((((((((((((((((",
"((((((((((((((((////l                                                                    l//// (((((((((((((((((((((((",
"((((((((((((((((////l                                                                    l////  ((((((((((((((((((((((",
"((((((((((((((((////l                                                                    l////  ((((((((((((((((((((((",
"((((((((((((((((////l                                                                    l////  ((((((((((((((((((((((",
"((((((((((((((((////l                                                                    l////  ((((((((((((((((((((((",
"((((((((((((((((////l                                                                    l////  ((((((((((((((((((((((",
"((((((((((((((((////m@@@@@@@@@@@@@@@@@@@@@@@@@@@@@@@@@@@@@@@@@@@@@@@@@@@@@@@@@@@@@@@@@@@@m////$&*;((((((((((((((((((((",
"((((((!////////////////////////////////////////////////////////////////////////////////////////////////P((((((((((((((",
"((((((//////////////////////////////////////////////////////////////////////////////////////////////////((((((((((((((",
"(((((W//////////////////////////////////////////////////////////////////////////////////////////////////m(((((((((((((",
"(((((R//////////////////////////////////////////////////////////////////////////////////////////////////z(((((((((((((",
"(((((Y////51111115llllllllllllllllllllllllllllllllllllllllllllllllllllllllllllllllllllllllll51111115////h(((((((((((((",
"(((((U////@                                                                                        @////a(((((((((((((",
"(((((I////@                                                                                        @////r(((((((((((((",
"(((((I////@                                                                                        @////q(((((((((((((",
"(((((L////@                                                                                        @////9 ((((((((((((",
"(((((L////@                                                                                        @////8 ((((((((((((",
"(((((L////mllllllllllllllllllllllllllllllllllllllllllllllllllllllllllllllllllllllllllllllllllllllllm////7 ((((((((((((",
"(((((L//////////////////////////////////////////////////////////////////////////////////////////////////7 ((((((((((((",
"(((((L//////////////////////////////////////////////////////////////////////////////////////////////////8 ((((((((((((",
"((((((//////////////////////////////////////////////////////////////////////////////////////////////////% ((((((((((((",
"((((((J~//////////////////////////////////////////////////////////////////////////////////////////////T0 (((((((((((((",
"((((((((((((((                                                                                          ((((((((((((((",
"((((((((((((((((((((((((((((((((((((((((((((((((((((((((((((((((((((((((((((((((((((((((((((((((((((((((((((((((((((((",
"((((((((((((((((((((((((((((((((((((((((((((((((((((((((((((((((((((((((((((((((((((((((((((((((((((((((((((((((((((((",
"((((((((((((((((((((((((((((((((((((((((((((((((((((((((((((((((((((((((((((((((((((((((((((((((((((((((((((((((((((((",
"((((((((((((((((((((((((((((((((((((((((((((((((((((((((((((((((((((((((((((((((((((((((((((((((((((((((((((((((((((((",
"((((((((((((((((((((((((((((((((((((((((((((((((((((((((((((((((((((((((((((((((((((((((((((((((((((((((((((((((((((((",
"((((((((((((((((((((((((((((((((((((((((((((((((((((((((((((((((((((((((((((((((((((((((((((((((((((((((((((((((((((((",
"((((((((((((((((((((((((((((((((((((((((((((((((((((((((((((((((((((((((((((((((((((((((((((((((((((((((((((((((((((((",
"((((((((((((((((((((((((((((((((((((((((((((((((((((((((((((((((((((((((((((((((((((((((((((((((((((((((((((((((((((((",
"((((((((((((((((((((((((((((((((((((((((((((((((((((((((((((((((((((((((((((((((((((((((((((((((((((((((((((((((((((((",
"((((((((((((((((((((((((((((((((((((((((((((((((((((((((((((((((((((((((((((((((((((((((((((((((((((((((((((((((((((((",
"((((((((((((((((((((((((((((((((((((((((((((((((((((((((((((((((((((((((((((((((((((((((((((((((((((((((((((((((((((((",
"(((((((((((((((((((((((((((((((((((((((((((((((((((((((((((((((((((((((((((((((((((((((((((((((((((((((((((((((((((((("
};
