/* XPM */
static char *result[] = {
/* columns rows colors chars-per-pixel */
"108 128 88 1 ",
"  c black",
". c #0E0E0E",
"X c gray9",
"o c #1D1D1D",
"O c gray17",
"+ c gray18",
"@ c #353535",
"# c gray22",
"$ c #3A3A3A",
"% c gray25",
"& c #414141",
"* c #434343",
"= c #484848",
"- c #494949",
"; c #4B4B4B",
": c gray32",
"> c gray34",
", c #585858",
"< c #5A5A5A",
"1 c #5F5F5F",
"2 c #656565",
"3 c gray40",
"4 c gray42",
"5 c #6F6F6F",
"6 c gray45",
"7 c #767676",
"8 c #7C7C7C",
"9 c gray50",
"0 c gray51",
"q c #838383",
"w c gray52",
"e c gray53",
"r c #8D8D8D",
"t c gray56",
"y c #909090",
"u c #929292",
"i c gray58",
"p c #959595",
"a c #979797",
"s c gray60",
"d c #9D9D9D",
"f c gray62",
"g c #9F9F9F",
"h c #A0A0A0",
"j c gray63",
"k c #A2A2A2",
"l c #A5A5A5",
"z c gray66",
"x c #AAAAAA",
"c c gray68",
"v c #B7B7B7",
"b c gray72",
"n c gray73",
"m c #BBBBBB",
"M c #BCBCBC",
"N c gray74",
"B c gray",
"V c gray75",
"C c #C0C0C0",
"Z c gray76",
"A c #C3C3C3",
"S c gray77",
"D c #C5C5C5",
"F c #C6C6C6",
"G c #CACACA",
"H c #CECECE",
"J c gray81",
"K c #D0D0D0",
"L c #D2D2D2",
"P c LightGray",
"I c gray83",
"U c #D5D5D5",
"Y c gray84",
"T c #D7D7D7",
"R c #D8D8D8",
"E c gray85",
"W c #DADADA",
"Q c gainsboro",
"! c #DDDDDD",
"~ c #DFDFDF",
"^ c gray88",
"/ c #E1E1E1",
"( c #E2E2E2",
") c gray89",
"_ c #E4E4E4",
"` c gray90",
"' c #E6E6E6",
"] c None",
/* pixels */
"]]]]]]]]]]]]]]]]]]]]]]]]]]]]]]]]]]]]]]]]]]]]]]]]]]]]]]]]]]]]]]]]]]]]]]]]]]]]]]]]]]]]]]]]]]]]]]]]]]]]]]]]]]]]",
"]]]]]]]]]]]]]]]]]]]]]]]]]]]]]]]]]]]]]]]]]]]]]]]]]]]]]]]]]]]]]]]]]]]]]]]]]]]]]]]]]]]]]]]]]]]]]]]]]]]]]]]]]]]]",
"]]]]]]]]]]]]]]]]]]]]]]]]]]]]]]]]]]]]]]]]]]]]]]]]]]]]]]]]]]]]]]]]]]]]]]]]]]]]]]]]]]]]]]]]]]]]]]]]]]]]]]]]]]]]",
"]]]]]]]]]]]]]]]]]]]]]]]]]]]]]]]]]]]]]]]]]]]]]]]]]]]]]]]]]]]]]]]]]]]]]]]]]]]]]]]]]]]]]]]]]]]]]]]]]]]]]]]]]]]]",
"]]]]]]]]]]]]]]]]]]]]]]]]]]]]]]]]]]]]]]]]]]]]]]]]]]]]]]]]]]]]]]]]]]]]]]]]]]]]]]]]]]]]]]]]]]]]]]]]]]]]]]]]]]]]",
"]]]]]]]]]]]]]]]]]]]]]]]]]]]]]]]]]]]]]]]]]]]]]]]]]]]]]]]]]]]]]]]]]]]]]]]]]]]]]]]]]]]]]]]]]]]]]]]]]]]]]]]]]]]]",
"]]]]]]]]]]]]]]]]]]]]]]]]]]]]]]]]]]]]]]]]]]]]]]/(('`//Y]]]]]]]]]]]]]]]]]]]]]]]]]]]]]]]]]]]]]]]]]]]]]]]]]]]]]]",
"]]]]]]]]]]]]]]]]]]]]]]]]]]]]]]]]]]]]]]]]]]]`'''''''''''_R]]]]]]]]]]]]]]]]]]]]]]]]]]]]]]]]]]]]]]]]]]]]]]]]]]]",
"]]]]]]]]]]]]]]]]]]]]]]]]]]]]]]]]]]]]]]]]]`''''''''''''''''L]]]]]]]]]]]]]]]]]]]]]]]]]]]]]]]]]]]]]]]]]]]]]]]]]",
"]]]]]]]]]]]]]]]]]]]]]]]]]]]]]]]]]]]]]]])''''''''''''''''''')]]]]]]]]]]]]]]]]]]]]]]]]]]]]]]]]]]]]]]]]]]]]]]]]",
"]]]]]]]]]]]]]]]]]]]]]]]]]]]]]]]]]]]]]]`''''''''''''''''''''''N]]]]]]]]]]]]]]]]]]]]]]]]]]]]]]]]]]]]]]]]]]]]]]",
"]]]]]]]]]]]]]]]]]]]]]]]]]]]]]]]]]]]]]`''''''''M06=26gR''''''''Z]]]]]]]]]]]]]]]]]]]]]]]]]]]]]]]]]]]]]]]]]]]]]",
"]]]]]]]]]]]]]]]]]]]]]]]]]]]]]]]]]]]]`'''''''0o        =c'''''''f]]]]]]]]]]]]]]]]]]]]]]]]]]]]]]]]]]]]]]]]]]]]",
"]]]]]]]]]]]]]]]]]]]]]]]]]]]]]]]]]]]/''''''co            2R'''''/]]]]]]]]]]]]]]]]]]]]]]]]]]]]]]]]]]]]]]]]]]]]",
"]]]]]]]]]]]]]]]]]]]]]]]]]]]]]]]]]]]''''''y               OR'''''J]]]]]]]]]]]]]]]]]]]]]]]]]]]]]]]]]]]]]]]]]]]",
"]]]]]]]]]]]]]]]]]]]]]]]]]]]]]]]]]])'''''y                 OR'''''5]]]]]]]]]]]]]]]]]]]]]]]]]]]]]]]]]]]]]]]]]]",
"]]]]]]]]]]]]]]]]]]]]]]]]]]]]]]]]]]'''''M.                  ='''''Z]]]]]]]]]]]]]]]]]]]]]]]]]]]]]]]]]]]]]]]]]]",
"]]]]]]]]]]]]]]]]]]]]]]]]]]]]]]]]]~'''''$                    c''''']]]]]]]]]]]]]]]]]]]]]]]]]]]]]]]]]]]]]]]]]]",
"]]]]]]]]]]]]]]]]]]]]]]]]]]]]]]]]])''''M                     $'''''7]]]]]]]]]]]]]]]]]]]]]]]]]]]]]]]]]]]]]]]]]",
"]]]]]]]]]]]]]]]]]]]]]]]]]]]]]]]]]'''''2                      G''''d]]]]]]]]]]]]]]]]]]]]]]]]]]]]]]]]]]]]]]]]]",
"]]]]]]]]]]]]]]]]]]]]]]]]]]]]]]]]]'''''$                      g''''M]]]]]]]]]]]]]]]]]]]]]]]]]]]]]]]]]]]]]]]]]",
"]]]]]]]]]]]]]]]]]]]]]]]]]]]]]]]]]'''''                       6''''D]]]]]]]]]]]]]]]]]]]]]]]]]]]]]]]]]]]]]]]]]",
"]]]]]]]]]]]]]]]]]]]]]]]]]]]]]]]]]'''''                       6''''S]]]]]]]]]]]]]]]]]]]]]]]]]]]]]]]]]]]]]]]]]",
"]]]]]]]]]]]]]]]]]]]]]]]]]]]]]]]]]'''''o                      0''''A ]]]]]]]]]]]]]]]]]]]]]]]]]]]]]]]]]]]]]]]]",
"]]]]]]]]]]]]]]]]]]]]]]]]]]]]]]]]]'''''=                      M''''j ]]]]]]]]]]]]]]]]]]]]]]]]]]]]]]]]]]]]]]]]",
"]]]]]]]]]]]]]]]]]]]]]]]]]]]]]]]]])''''y                     o'''''w ]]]]]]]]]]]]]]]]]]]]]]]]]]]]]]]]]]]]]]]]",
"]]]]]]]]]]]]]]]]]]]]]]]]]]]]]]]]]E'''''.                    6'''''* ]]]]]]]]]]]]]]]]]]]]]]]]]]]]]]]]]]]]]]]]",
"]]]]]]]]]]]]]]]]]]]]]]]]]]]]]]]]]]'''''0                   oR''''I  ]]]]]]]]]]]]]]]]]]]]]]]]]]]]]]]]]]]]]]]]",
"]]]]]]]]]]]]]]]]]]]]]]]]]]]]]]]]]]('''''=                  c'''''0  ]]]]]]]]]]]]]]]]]]]]]]]]]]]]]]]]]]]]]]]]",
"]]]]]]]]]]]]]]]]]]]]]]]]]]]]]]]]]]Q'''''Ro                6''''''6  ]]]]]]]]]]]]]]]]]]]]]]]]]]]]]]]]]]]]]]]]",
"]]]]]]]]]]]]]]]]]]]]]]]]]]]]]]]]])'''''''M.              =''''''''h ]]]]]]]]]]]]]]]]]]]]]]]]]]]]]]]]]]]]]]]]",
"]]]]]]]]]]]]]]]]]]]]]]]]]]]]]]]]`'''''''R6.              Oc''''''''Do]]]]]]]]]]]]]]]]]]]]]]]]]]]]]]]]]]]]]]]",
"]]]]]]]]]]]]]]]]]]]]]]]]]]]]]]]''''''''6.                  $c'''''''K]]]]]]]]]]]]]]]]]]]]]]]]]]]]]]]]]]]]]]]",
"]]]]]]]]]]]]]]]]]]]]]]]]]]]]]]'''''''co                      2R''''''G]]]]]]]]]]]]]]]]]]]]]]]]]]]]]]]]]]]]]]",
"]]]]]]]]]]]]]]]]]]]]]]]]]]]]]`''''''6                         OM''''''n]]]]]]]]]]]]]]]]]]]]]]]]]]]]]]]]]]]]]",
"]]]]]]]]]]]]]]]]]]]]]]]]]]]]`''''''>                           .M''''''9]]]]]]]]]]]]]]]]]]]]]]]]]]]]]]]]]]]]",
"]]]]]]]]]]]]]]]]]]]]]]]]]]]/''''''>                             .M'''''/]]]]]]]]]]]]]]]]]]]]]]]]]]]]]]]]]]]]",
"]]]]]]]]]]]]]]]]]]]]]]]]]]]`'''''>                               .M'''''n]]]]]]]]]]]]]]]]]]]]]]]]]]]]]]]]]]]",
"]]]]]]]]]]]]]]]]]]]]]]]]]]/'''''y                                 oR''''']]]]]]]]]]]]]]]]]]]]]]]]]]]]]]]]]]]",
"]]]]]]]]]]]]]]]]]]]]]]]]]]'''''G.                                  2'''''b]]]]]]]]]]]]]]]]]]]]]]]]]]]]]]]]]]",
"]]]]]]]]]]]]]]]]]]]]]]]]]/'''''>                                    M''''']]]]]]]]]]]]]]]]]]]]]]]]]]]]]]]]]]",
"]]]]]]]]]]]]]]]]]]]]]]]]]`''''G                                     $'''''u]]]]]]]]]]]]]]]]]]]]]]]]]]]]]]]]]",
"]]]]]]]]]]]]]]]]]]]]]]]]]'''''>                                      G''''K]]]]]]]]]]]]]]]]]]]]]]]]]]]]]]]]]",
"]]]]]]]]]]]]]]]]]]]]]]]]!'''''.                                      2''''']]]]]]]]]]]]]]]]]]]]]]]]]]]]]]]]]",
"]]]]]]]]]]]]]]]]]]]]]]]](''''g                                       O'''''1]]]]]]]]]]]]]]]]]]]]]]]]]]]]]]]]",
"]]]]]]]]]]]]]]]]]]]]]]]]`''''6                                        R''''s]]]]]]]]]]]]]]]]]]]]]]]]]]]]]]]]",
"]]]]]]]]]]]]]]]]]]]]]]]]'''''$                                        c''''a]]]]]]]]]]]]]]]]]]]]]]]]]]]]]]]]",
"]]]]]]]]]]]]]]]]]]]]]]]]'''''O                                        y''''S]]]]]]]]]]]]]]]]]]]]]]]]]]]]]]]]",
"]]]]]]]]]]]]]]]]]]]]]]]]'''''                                         6''''A]]]]]]]]]]]]]]]]]]]]]]]]]]]]]]]]",
"]]]]]]]]]]]]]]]]]]]]]]]]'''''                                         6''''A ]]]]]]]]]]]]]]]]]]]]]]]]]]]]]]]",
"]]]]]]]]]]]]]]]]]]]]]]]]'''''o                                        0''''Z ]]]]]]]]]]]]]]]]]]]]]]]]]]]]]]]",
"]]]]]]]]]]]]]]]]]]]]]]]]'''''$                                        c''''h ]]]]]]]]]]]]]]]]]]]]]]]]]]]]]]]",
"]]]]]]]]]]]]]]]]]]]]]]]]'''''2                                        G''''u ]]]]]]]]]]]]]]]]]]]]]]]]]]]]]]]",
"]]]]]]]]]]]]]]]]]]]]]]]]~''''y                                       o'''''3 ]]]]]]]]]]]]]]]]]]]]]]]]]]]]]]]",
"]]]]]]]]]]]]]]]]]]]]]]]]T''''R                                       >'''''+ ]]]]]]]]]]]]]]]]]]]]]]]]]]]]]]]",
"]]]]]]]]]]]]]]]]]]]]]]]]]'''''=                                      c''''I  ]]]]]]]]]]]]]]]]]]]]]]]]]]]]]]]",
"]]]]]]]]]]]]]]]]]]]]]]]]]_''''c                                     o'''''f  ]]]]]]]]]]]]]]]]]]]]]]]]]]]]]]]",
"]]]]]]]]]]]]]]]]]]]]]]]]]Y'''''$                                    y'''''& ]]]]]]]]]]]]]]]]]]]]]]]]]]]]]]]]",
"]]]]]]]]]]]]]]]]]]]]]]]]]]'''''c                                   $'''''C  ]]]]]]]]]]]]]]]]]]]]]]]]]]]]]]]]",
"]]]]]]]]]]]]]]]]]]]]]]]]]]W'''''2                                 .G''''':  ]]]]]]]]]]]]]]]]]]]]]]]]]]]]]]]]",
"]]]]]]]]]]]]]]]]]]]]]]]]]]]''''''O                                y'''''V   ]]]]]]]]]]]]]]]]]]]]]]]]]]]]]]]]",
"]]]]]]]]]]]]]]]]]]]]]]]]]]]U'''''RO                              0''''''%  ]]]]]]]]]]]]]]]]]]]]]]]]]]]]]]]]]",
"]]]]]]]]]]]]]]]]]]]]]]]]]]]])'''''RO                            0''''''t   ]]]]]]]]]]]]]]]]]]]]]]]]]]]]]]]]]",
"]]]]]]]]]]]]]]]]]]]]]]]]]]]]]''''''R$                          y''''''G   ]]]]]]]]]]]]]]]]]]]]]]]]]]]]]]]]]]",
"]]]]]]]]]]]]]]]]]]]]]]]]]]]]]l'''''''6                       oM''''''PX   ]]]]]]]]]]]]]]]]]]]]]]]]]]]]]]]]]]",
"]]]]]]]]]]]]]]]]]]]]]]]]]]]]]x''''''''c.                    =R'''''''BO   ]]]]]]]]]]]]]]]]]]]]]]]]]]]]]]]]]]",
"]]]]]]]]]]]]]]]]]]]]]]]]]]]]Q''''''''''GO                  0'''''''''''u ]]]]]]]]]]]]]]]]]]]]]]]]]]]]]]]]]]]",
"]]]]]]]]]]]]]]]]]]]]]]]]]]R'''''''''''g>.                  O0G''''''''''H;]]]]]]]]]]]]]]]]]]]]]]]]]]]]]]]]]]",
"]]]]]]]]]]]]]]]]]]]]]]]]]_'''''''''g>.                        O0G'''''''''p]]]]]]]]]]]]]]]]]]]]]]]]]]]]]]]]]",
"]]]]]]]]]]]]]]]]]]]]]]]]`'''''''R0o                              =c''''''''m]]]]]]]]]]]]]]]]]]]]]]]]]]]]]]]]",
"]]]]]]]]]]]]]]]]]]]]]]]''''''''yo                                  =G'''''''Y]]]]]]]]]]]]]]]]]]]]]]]]]]]]]]]",
"]]]]]]]]]]]]]]]]]]]]]]'''''''G$                                     .0'''''''Y]]]]]]]]]]]]]]]]]]]]]]]]]]]]]]",
"]]]]]]]]]]]]]]]]]]]]]'''''''y.                                        $R''''''Y]]]]]]]]]]]]]]]]]]]]]]]]]]]]]",
"]]]]]]]]]]]]]]]]]]]]'''''''2                                           .M''''''Y]]]]]]]]]]]]]]]]]]]]]]]]]]]]",
"]]]]]]]]]]]]]]]]]]]''''''R=                                             .y''''''Y]]]]]]]]]]]]]]]]]]]]]]]]]]]",
"]]]]]]]]]]]]]]]]]]`'''''RO                                                y''''''N]]]]]]]]]]]]]]]]]]]]]]]]]]",
"]]]]]]]]]]]]]]]]]`'''''RO                                                  y''''''x]]]]]]]]]]]]]]]]]]]]]]]]]",
"]]]]]]]]]]]]]]]])''''''O                                                    y''''''6]]]]]]]]]]]]]]]]]]]]]]]]",
"]]]]]]]]]]]]]]]]''''''>                                                     .M'''''W]]]]]]]]]]]]]]]]]]]]]]]]",
"]]]]]]]]]]]]]]]`'''''6                                                       .R'''''S]]]]]]]]]]]]]]]]]]]]]]]",
"]]]]]]]]]]]]]])'''''c                                                         O''''''4]]]]]]]]]]]]]]]]]]]]]]",
"]]]]]]]]]]]]]]'''''R.                                                          6'''''E]]]]]]]]]]]]]]]]]]]]]]",
"]]]]]]]]]]]]]`'''''=                                                            M'''''k]]]]]]]]]]]]]]]]]]]]]",
"]]]]]]]]]]]]~'''''g                                                             O'''''^]]]]]]]]]]]]]]]]]]]]]",
"]]]]]]]]]]]]`''''Ro                                                              6'''''h]]]]]]]]]]]]]]]]]]]]",
"]]]]]]]]]]]~'''''6                                                               .R''''^]]]]]]]]]]]]]]]]]]]]",
"]]]]]]]]]]]`''''R.                                                                >'''''f]]]]]]]]]]]]]]]]]]]",
"]]]]]]]]]]]'''''6                                                                  G''''^]]]]]]]]]]]]]]]]]]]",
"]]]]]]]]]]`''''R.                                                                  >'''''q]]]]]]]]]]]]]]]]]]",
"]]]]]]]]]]'''''6                                                                   .R''''J]]]]]]]]]]]]]]]]]]",
"]]]]]]]]]/'''''o                                                                    0'''''#]]]]]]]]]]]]]]]]]",
"]]]]]]]]]`''''g                                                                     o'''''z]]]]]]]]]]]]]]]]]",
"]]]]]]]]]'''''=                                                                      M''''T]]]]]]]]]]]]]]]]]",
"]]]]]]]]/''''R                                                                       >'''''@]]]]]]]]]]]]]]]]",
"]]]]]]]]_''''y                                                                       o'''''r]]]]]]]]]]]]]]]]",
"]]]]]]]]'''''=                                                                        M''''m]]]]]]]]]]]]]]]]",
"]]]]]]]]'''''.                                                                        6''''~]]]]]]]]]]]]]]]]",
"]]]]]]]/''''M                                                                         $'''''-]]]]]]]]]]]]]]]",
"]]]]]]]_''''0                                                                          '''''8]]]]]]]]]]]]]]]",
"]]]]]]]'''''=                                                                          c''''k]]]]]]]]]]]]]]]",
"]]]]]]]'''''o                                                                          0''''S]]]]]]]]]]]]]]]",
"]]]]]]]'''''                                                                           2''''~ ]]]]]]]]]]]]]]",
"]]]]]]W''''c                                                                           $''''' ]]]]]]]]]]]]]]",
"]]]]]]^''''y                                                                           .'''''<]]]]]]]]]]]]]]",
"]]]]]]/''''6                                                                            ''''',]]]]]]]]]]]]]]",
"]]]]]]_''''6                                                                            G''''e]]]]]]]]]]]]]]",
"]]]]]]'''''$                                                                            c''''p ]]]]]]]]]]]]]",
"]]]]]]'''''$                                                                            c''''i ]]]]]]]]]]]]]",
"]]]]]]'''''2$$$$$$$$$$$$$$$$$$$$$$$$$$$$$$$$$$$$$$$$$$$$$$$$$$$$$$$$$$$$$$$$$$$$$$$$$$$$M''''i ]]]]]]]]]]]]]",
"]]]]]]'''''''''''''''''''''''''''''''''''''''''''''''''''''''''''''''''''''''''''''''''''''''v ]]]]]]]]]]]]]",
"]]]]]]'''''''''''''''''''''''''''''''''''''''''''''''''''''''''''''''''''''''''''''''''''''''A ]]]]]]]]]]]]]",
"]]]]]]'''''''''''''''''''''''''''''''''''''''''''''''''''''''''''''''''''''''''''''''''''''''A ]]]]]]]]]]]]]",
"]]]]]]'''''''''''''''''''''''''''''''''''''''''''''''''''''''''''''''''''''''''''''''''''''''S ]]]]]]]]]]]]]",
"]]]]]]'''''''''''''''''''''''''''''''''''''''''''''''''''''''''''''''''''''''''''''''''''''''F]]]]]]]]]]]]]]",
"]]]]]]]]]]]]]]]                                                                              ]]]]]]]]]]]]]]]",
"]]]]]]]]]]]]]]]]]]]]]]]]]]]]]]]]]]]]]]]]]]]]]]]]]]]]]]]]]]]]]]]]]]]]]]]]]]]]]]]]]]]]]]]]]]]]]]]]]]]]]]]]]]]]",
"]]]]]]]]]]]]]]]]]]]]]]]]]]]]]]]]]]]]]]]]]]]]]]]]]]]]]]]]]]]]]]]]]]]]]]]]]]]]]]]]]]]]]]]]]]]]]]]]]]]]]]]]]]]]",
"]]]]]]]]]]]]]]]]]]]]]]]]]]]]]]]]]]]]]]]]]]]]]]]]]]]]]]]]]]]]]]]]]]]]]]]]]]]]]]]]]]]]]]]]]]]]]]]]]]]]]]]]]]]]",
"]]]]]]]]]]]]]]]]]]]]]]]]]]]]]]]]]]]]]]]]]]]]]]]]]]]]]]]]]]]]]]]]]]]]]]]]]]]]]]]]]]]]]]]]]]]]]]]]]]]]]]]]]]]]",
"]]]]]]]]]]]]]]]]]]]]]]]]]]]]]]]]]]]]]]]]]]]]]]]]]]]]]]]]]]]]]]]]]]]]]]]]]]]]]]]]]]]]]]]]]]]]]]]]]]]]]]]]]]]]",
"]]]]]]]]]]]]]]]]]]]]]]]]]]]]]]]]]]]]]]]]]]]]]]]]]]]]]]]]]]]]]]]]]]]]]]]]]]]]]]]]]]]]]]]]]]]]]]]]]]]]]]]]]]]]",
"]]]]]]]]]]]]]]]]]]]]]]]]]]]]]]]]]]]]]]]]]]]]]]]]]]]]]]]]]]]]]]]]]]]]]]]]]]]]]]]]]]]]]]]]]]]]]]]]]]]]]]]]]]]]",
"]]]]]]]]]]]]]]]]]]]]]]]]]]]]]]]]]]]]]]]]]]]]]]]]]]]]]]]]]]]]]]]]]]]]]]]]]]]]]]]]]]]]]]]]]]]]]]]]]]]]]]]]]]]]",
"]]]]]]]]]]]]]]]]]]]]]]]]]]]]]]]]]]]]]]]]]]]]]]]]]]]]]]]]]]]]]]]]]]]]]]]]]]]]]]]]]]]]]]]]]]]]]]]]]]]]]]]]]]]]",
"]]]]]]]]]]]]]]]]]]]]]]]]]]]]]]]]]]]]]]]]]]]]]]]]]]]]]]]]]]]]]]]]]]]]]]]]]]]]]]]]]]]]]]]]]]]]]]]]]]]]]]]]]]]]",
"]]]]]]]]]]]]]]]]]]]]]]]]]]]]]]]]]]]]]]]]]]]]]]]]]]]]]]]]]]]]]]]]]]]]]]]]]]]]]]]]]]]]]]]]]]]]]]]]]]]]]]]]]]]]",
"]]]]]]]]]]]]]]]]]]]]]]]]]]]]]]]]]]]]]]]]]]]]]]]]]]]]]]]]]]]]]]]]]]]]]]]]]]]]]]]]]]]]]]]]]]]]]]]]]]]]]]]]]]]]",
"]]]]]]]]]]]]]]]]]]]]]]]]]]]]]]]]]]]]]]]]]]]]]]]]]]]]]]]]]]]]]]]]]]]]]]]]]]]]]]]]]]]]]]]]]]]]]]]]]]]]]]]]]]]]"
};
