/* XPM */
static char *result[] = {
/* columns rows colors chars-per-pixel */
"118 128 26 1 ",
"  c black",
". c gray1",
"X c gray4",
"o c #0E0E0E",
"O c #151515",
"+ c gray11",
"@ c #232323",
"# c gray14",
"$ c #2A2A2A",
"% c gray17",
"& c gray18",
"* c #353535",
"= c #393939",
"- c gray28",
"; c #565656",
": c #5D5D5D",
"> c #646464",
", c gray45",
"< c #818181",
"1 c gray56",
"2 c #ACACAC",
"3 c #BBBBBB",
"4 c gray79",
"5 c #D8D8D8",
"6 c #E6E6E6",
"7 c None",
/* pixels */
"7777777777777777777777777777777777777777777777777777777777777777777777777777777777777777777777777777777777777777777777",
"7777777777777777777777777777777777777777777777777777777777777777777777777777777777777777777777777777777777777777777777",
"7777777777777777777777777777777777777777777777777777777777777777777777777777777777777777777777777777777777777777777777",
"7777777777777777777777777777777777777777777777777777777777777777777777777777777777777777777777777777777777777777777777",
"7777777777777777777777777777777777777777777777777777777777777777777777777777777777777777777777777777777777777777777777",
"777777777777777              77777777777777777                  77777777777777777               7777777777777777777777",
"7777777777777                  77777777777777                     77777777777777                 777777777777777777777",
"7777777777777                  7777777777777                      7777777777777                   77777777777777777777",
"777777777777                   7777777777777                       777777777777                   77777777777777777777",
"777777777777                   7777777777777                       777777777777                   77777777777777777777",
"777777777777     <22222222;     777777777777    $222222222222<     777777777777     222222222$    77777777777777777777",
"777777777777     266666666,     777777777777    =6666666666662     777777777777     666666666=    77777777777777777777",
"777777777777     266666666,                     =6666666666662                      666666666=    77777777777777777777",
"777777777777     266666666,                     =6666666666662                      666666666=     7777777777777777777",
"777777777777     266666666,                     =6666666666662                      666666666=     7777777777777777777",
"777777777777     2666666664                     ;6666666666664                     ;666666666=     7777777777777777777",
"777777777777     2666666666>                   +36666666666666>                   +3666666666=     7777777777777777777",
"777777777777     2666666666652222222222222222236666666666666666522222222222222222366666666666=     7777777777777777777",
"777777777777     2666666666666666666666666666666666666666666666666666666666666666666666666666=     7777777777777777777",
"777777777777     2666666666666666666666666666666666666666666666666666666666666666666666666666=     7777777777777777777",
"777777777777     2666666666666666666666666666666666666666666666666666666666666666666666666666=     7777777777777777777",
"777777777777     2666666666666666666666666666666666666666666666666666666666666666666666666666=     7777777777777777777",
"777777777777     2666666666666666666666666666666666666666666666666666666666666666666666666666=     7777777777777777777",
"777777777777                                                                                       7777777777777777777",
"777777777777                                                                                       7777777777777777777",
"777777777777                                                                                       7777777777777777777",
"7777777777777                                                                                      7777777777777777777",
"7777777777777       O====================================================================&.        7777777777777777777",
"777777777777777      ;6666666666666666666666666666666666666666666666666666666666666666663o         7777777777777777777",
"777777777777777       ;66666666666666666666666666666666666666666666666666666666666666663o         77777777777777777777",
"7777777777777777       ;666666666666666666666666666666666666666666666666666666666666663o         777777777777777777777",
"77777777777777777       ;6666666666666666666666666666666666666666666666666666666666663o          777777777777777777777",
"777777777777777777       ;66666666666666666666666666666666666666666666666666666666663o          7777777777777777777777",
"7777777777777777777       -,,,,,,,,,,,,,,,,,,,,,,,,,,,,,,,,,,,,,,,,,,,,,,,,,,,,,,,,,o          77777777777777777777777",
"77777777777777777777                                                                          777777777777777777777777",
"777777777777777777777                                                                        7777777777777777777777777",
"7777777777777777777777                                                                      77777777777777777777777777",
"77777777777777777777777                                                                    777777777777777777777777777",
"77777777777777777777777    %222222222222222222222222222222222222222222222222222222<        777777777777777777777777777",
"77777777777777777777777    =6666666666666666666666666666666666666666666666666666662       7777777777777777777777777777",
"77777777777777777777777    =6666666666666666666666666666666666666666666666666666662       7777777777777777777777777777",
"77777777777777777777777    =6666666666666666666666666666666666666666666666666666662      77777777777777777777777777777",
"77777777777777777777777    =6666666666666666666666666666666666666666666666666666662      77777777777777777777777777777",
"77777777777777777777777    =6666666666666666666666666666666666666666666666666666662      77777777777777777777777777777",
"77777777777777777777777    =6666666666666666666666666666666666666666666666666666662      77777777777777777777777777777",
"77777777777777777777777    =6666666666666666666666666666666666666666666666666666662      77777777777777777777777777777",
"77777777777777777777777    =6666666666666666666666666666666666666666666666666666662      77777777777777777777777777777",
"77777777777777777777777    =6666666666666666666666666666666666666666666666666666662      77777777777777777777777777777",
"77777777777777777777777    =6666666666666666666666666666666666666666666666666666662      77777777777777777777777777777",
"77777777777777777777777    =6666666666666666666666666666666666666666666666666666662      77777777777777777777777777777",
"77777777777777777777777    =6666666666666666666666666666666666666666666666666666662      77777777777777777777777777777",
"77777777777777777777777    =6666666666666666666666666666666666666666666666666666662      77777777777777777777777777777",
"77777777777777777777777    =6666666666666666666666666666666666666666666666666666662      77777777777777777777777777777",
"77777777777777777777777    =6666666666666666666666666666666666666666666666666666662      77777777777777777777777777777",
"77777777777777777777777    =6666666666666666666666666666666666666666666666666666662      77777777777777777777777777777",
"77777777777777777777777    =6666666666666666666666666666666666666666666666666666662      77777777777777777777777777777",
"77777777777777777777777    =6666666666666666666666666666666666666666666666666666662      77777777777777777777777777777",
"77777777777777777777777    =6666666666666666666666666666666666666666666666666666662      77777777777777777777777777777",
"77777777777777777777777    =6666666666666666666666666666666666666666666666666666662      77777777777777777777777777777",
"77777777777777777777777    =6666666666666666666666666666666666666666666666666666662      77777777777777777777777777777",
"77777777777777777777777    =6666666666666666666666666666666666666666666666666666662      77777777777777777777777777777",
"77777777777777777777777    =6666666666666666666666666666666666666666666666666666662      77777777777777777777777777777",
"77777777777777777777777    =6666666666666666666666666666666666666666666666666666662      77777777777777777777777777777",
"77777777777777777777777    =6666666666666666666666666666666666666666666666666666662      77777777777777777777777777777",
"77777777777777777777777    =6666666666666666666666666666666666666666666666666666662      77777777777777777777777777777",
"77777777777777777777777    =6666666666666666666666666666666666666666666666666666662      77777777777777777777777777777",
"77777777777777777777777    =6666666666666666666666666666666666666666666666666666662      77777777777777777777777777777",
"77777777777777777777777    =6666666666666666666666666666666666666666666666666666662      77777777777777777777777777777",
"77777777777777777777777    =6666666666666666666666666666666666666666666666666666662      77777777777777777777777777777",
"77777777777777777777777    =6666666666666666666666666666666666666666666666666666662      77777777777777777777777777777",
"77777777777777777777777    =6666666666666666666666666666666666666666666666666666662      77777777777777777777777777777",
"77777777777777777777777    =6666666666666666666666666666666666666666666666666666662      77777777777777777777777777777",
"77777777777777777777777    =6666666666666666666666666666666666666666666666666666662      77777777777777777777777777777",
"77777777777777777777777    =6666666666666666666666666666666666666666666666666666662      77777777777777777777777777777",
"77777777777777777777777    =6666666666666666666666666666666666666666666666666666662      77777777777777777777777777777",
"77777777777777777777777    $222222222222222222222222222222222222222222222222222222<      77777777777777777777777777777",
"77777777777777777777777                                                                  77777777777777777777777777777",
"77777777777777777777777                                                                  77777777777777777777777777777",
"77777777777777777777777                                                                  77777777777777777777777777777",
"77777777777777777777777                                                                  77777777777777777777777777777",
"7777777777777777777777     @,,,,,,,,,,,,,,,,,,,,,,,,,,,,,,,,,,,,,,,,,,,,,,,,,,,,,,:      77777777777777777777777777777",
"777777777777777777777      36666666666666666666666666666666666666666666666666666666-      7777777777777777777777777777",
"777777777777777777777     >666666666666666666666666666666666666666666666666666666664o     7777777777777777777777777777",
"77777777777777777777     o5666666666666666666666666666666666666666666666666666666666,      777777777777777777777777777",
"77777777777777777777     166666666666666666666666666666666666666666666666666666666666+     777777777777777777777777777",
"7777777777777777777     =6666666666666666666666666666666666666666666666666666666666662      77777777777777777777777777",
"77777777777777777                                                                             777777777777777777777777",
"7777777777777777                                                                              777777777777777777777777",
"7777777777777777                                                                               77777777777777777777777",
"7777777777777777                                                                               77777777777777777777777",
"7777777777777777    .ooooooooooooooooooooooooooooooooooooooooooooooooooooooooooooooooooooX     77777777777777777777777",
"7777777777777777    =666666666666666666666666666666666666666666666666666666666666666666662     77777777777777777777777",
"7777777777777777    =666666666666666666666666666666666666666666666666666666666666666666662     77777777777777777777777",
"7777777777777777    =666666666666666666666666666666666666666666666666666666666666666666662     77777777777777777777777",
"7777777777777777    =666666666666666666666666666666666666666666666666666666666666666666662      7777777777777777777777",
"7777777777777777    =666666666666666666666666666666666666666666666666666666666666666666662      7777777777777777777777",
"7777777777777777    =666666666666666666666666666666666666666666666666666666666666666666662      7777777777777777777777",
"7777777777777777    =666666666666666666666666666666666666666666666666666666666666666666662      7777777777777777777777",
"7777777777777777    =666666666666666666666666666666666666666666666666666666666666666666662      7777777777777777777777",
"7777777777777777    =666666666666666666666666666666666666666666666666666666666666666666662      7777777777777777777777",
"7777777                                                                                                 77777777777777",
"777777                                                                                                   7777777777777",
"777777                                                                                                   7777777777777",
"77777                                                                                                    7777777777777",
"77777     $=====*#ooooooooooooooooooooooooooooooooooooooooooooooooooooooooooooooooooooooooooO&======o    7777777777777",
"77777     266666666666666666666666666666666666666666666666666666666666666666666666666666666666666666=    7777777777777",
"77777     266666666666666666666666666666666666666666666666666666666666666666666666666666666666666666=    7777777777777",
"77777     266666666666666666666666666666666666666666666666666666666666666666666666666666666666666666=    7777777777777",
"77777     266666666666666666666666666666666666666666666666666666666666666666666666666666666666666666=     777777777777",
"77777     266666666666666666666666666666666666666666666666666666666666666666666666666666666666666666=     777777777777",
"77777     ;,,,,,,,,,,,,,,,,,,,,,,,,,,,,,,,,,,,,,,,,,,,,,,,,,,,,,,,,,,,,,,,,,,,,,,,,,,,,,,,,,,,,,,,,,+     777777777777",
"77777                                                                                                     777777777777",
"77777                                                                                                     777777777777",
"777777                                                                                                    777777777777",
"777777                                                                                                   7777777777777",
"7777777777                                                                                              77777777777777",
"7777777777777777777777777777777777777777777777777777777777777777777777777777777777777777777777777777777777777777777777",
"7777777777777777777777777777777777777777777777777777777777777777777777777777777777777777777777777777777777777777777777",
"7777777777777777777777777777777777777777777777777777777777777777777777777777777777777777777777777777777777777777777777",
"7777777777777777777777777777777777777777777777777777777777777777777777777777777777777777777777777777777777777777777777",
"7777777777777777777777777777777777777777777777777777777777777777777777777777777777777777777777777777777777777777777777",
"7777777777777777777777777777777777777777777777777777777777777777777777777777777777777777777777777777777777777777777777",
"7777777777777777777777777777777777777777777777777777777777777777777777777777777777777777777777777777777777777777777777",
"7777777777777777777777777777777777777777777777777777777777777777777777777777777777777777777777777777777777777777777777",
"7777777777777777777777777777777777777777777777777777777777777777777777777777777777777777777777777777777777777777777777",
"7777777777777777777777777777777777777777777777777777777777777777777777777777777777777777777777777777777777777777777777",
"7777777777777777777777777777777777777777777777777777777777777777777777777777777777777777777777777777777777777777777777",
"7777777777777777777777777777777777777777777777777777777777777777777777777777777777777777777777777777777777777777777777"
};
