/* XPM */
static char *result[] = {
/* columns rows colors chars-per-pixel */
"116 128 28 1 ",
"  c black",
". c #010101",
"X c #020202",
"o c #060606",
"O c #070707",
"+ c gray5",
"@ c #0E0E0E",
"# c gray11",
"$ c #272727",
"% c #2A2A2A",
"& c #393939",
"* c gray28",
"= c #505050",
"- c #565656",
"; c #5D5D5D",
": c #646464",
"> c gray42",
", c gray45",
"< c #818181",
"1 c gray56",
"2 c gray62",
"3 c gray63",
"4 c #ACACAC",
"5 c #BBBBBB",
"6 c gray79",
"7 c #D8D8D8",
"8 c #E6E6E6",
"9 c None",
/* pixels */
"99999999999999999999999999999999999999999999999999999999999999999999999999999999999999999999999999999999999999999999",
"99999999999999999999999999999999999999999999999999999999999999999999999999999999999999999999999999999999999999999999",
"99999999999999999999999999999999999999999999999999999999999999999999999999999999999999999999999999999999999999999999",
"99999999999999999999999999999999999999999999999999999999999999999999999999999999999999999999999999999999999999999999",
"99999999999999999999999999999999999999999999999999999999999999999999999999999999999999999999999999999999999999999999",
"9999999999999999999999999999999999999999999999999999999999  99999999999999999999999999999999999999999999999999999999",
"999999999999999999999999999999999999999999     999999999      999999999999999999999999999999999999999999999999999999",
"99999999999999999999999999999999999999999        999999       999999999999999999999999999999999999999999999999999999",
"9999999999999999999999999999999999999999          999          99999999999999999999999999999999999999999999999999999",
"9999999999999999999999999999999999999999           9           99999999999999999999999999999999999999999999999999999",
"999999999999999999999999999999999999999     <:           @-     9999999999999999999999999999999999999999999999999999",
"999999999999999999999999999999999999999    &88,         %57     9999999999999999999999999999999999999999999999999999",
"99999999999999999999999999999999999999     4888*       %788%    9999999999999999999999999999999999999999999999999999",
"99999999999999999999999999999999999999    &88887@     @7888-    9999999999999999999999999999999999999999999999999999",
"99999999999999999999999999999999999999    288888=     58888,    9999999999999999999999999999999999999999999999999999",
"9999999999999999999999999999999999999    #88886,+    ,88888<     999999999999999999999999999999999999999999999999999",
"9999999999999999999999999999999999999    ,886-      %8888884     999999999999999999999999999999999999999999999999999",
"9999999999999999999999999999999999999    66-        48888884     999999999999999999999999999999999999999999999999999",
"999999999999999999999999999999999999    $,         188888884       9999999999999999999999999999999999999999999999999",
"999999999999999999999999999999999999    o       @-6888888884         99999999999999999999999999999999999999999999999",
"999999999999999999999999999999999999          @,788888888887           999999999999999999999999999999999999999999999",
"999999999999999999999999999999999999        @,788888888888881#X          9999999999999999999999999999999999999999999",
"9999999999999999999999999999999999         -78888888888888888871%          99999999999999999999999999999999999999999",
"999999999999999999999999999999999        &688888888888888888888885-         9999999999999999999999999999999999999999",
"9999999999999999999999999999999        #4888888888888888888888888887,@        99999999999999999999999999999999999999",
"999999999999999999999999999999       @,8888888888888888888888888888887-        9999999999999999999999999999999999999",
"99999999999999999999999999999       &68888888888888888888888888888888885&       999999999999999999999999999999999999",
"9999999999999999999999999999      @28888888888888888888888888888888888888<       99999999999999999999999999999999999",
"99999999999999999999999999       *78888888888888888888888888888888888888885%      9999999999999999999999999999999999",
"9999999999999999999999999       <8888888888888888888888888888- *488888888887*      999999999999999999999999999999999",
"9999999999999999999999999     @5888887<<688888888888888888882    &48888888888:      99999999999999999999999999999999",
"999999999999999999999999     %7888881@  &8888888888888888888&      *68888888881      9999999999999999999999999999999",
"99999999999999999999999     @7888881     58888888888888888882       @<8888888881      999999999999999999999999999999",
"99999999999999999999999     5888881      788888888888888888882#       *7888888881      99999999999999999999999999999",
"99999999999999999999999    :888885      &88888888888888888888881#      %588888888,      9999999999999999999999999999",
"9999999999999999999999     688888%      4888888888888888888888887,      @588888888-     9999999999999999999999999999",
"9999999999999999999999    @888881      *888888888888888888888888885%     @588888887%     999999999999999999999999999",
"9999999999999999999999    *88888%     @78888888888888888888888888887-     @588888886@     99999999999999999999999999",
"9999999999999999999999    <88888     @5888888888888888888888888888888<     @588888882     99999999999999999999999999",
"999999999999999999999     588888#   @5888888888888888888888888888888881     @68888888*     9999999999999999999999999",
"99999999999999999999     %888888<  -688888888888888888888888888888888881     %78888887@     999999999999999999999999",
"99999999999999999999     288888888888888888888888888888888888888888888881     -88888881     999999999999999999999999",
"9999999999999999999     &8888888888888888888888888888888888888888888888881     28888888&     99999999999999999999999",
"9999999999999999999    @68888888888888888888888888888888888888888888888888-    @68888884     99999999999999999999999",
"999999999999999999     <888888888888888888888888888888888888888888888888888%    &8888888*     9999999999999999999999",
"99999999999999999     &88888888888888888888888888888888888888888888888888885@    28888886     9999999999999999999999",
"99999999999999999     588888888888888888888888888888888888888888888888888888<    #7888888-     999999999999999999999",
"9999999999999999     ,8888888888888888888888888888888888888888888888888888888&    ,8888885     999999999999999999999",
"999999999999999     #888888888888888888888888888888888888888888888888888888885    @7888888&     99999999999999999999",
"999999999999999     4888888888888888888888888888888888888888888888888888888888-    ,8888882     99999999999999999999",
"99999999999999     :88888888888888888888888888888888888888888888888888888888887@   @7888888#    99999999999999999999",
"9999999999999     #788888888888888888888888888888888888888888888888888888888888,    ,888888,     9999999999999999999",
"9999999999999     28888888888888888888888888888888888888888888888888888888888887@   @8888886     9999999999999999999",
"999999999999     *88888888888888888888888888888888888888888444788888888888888888-    1888888&    9999999999999999999",
"99999999999     @78888888888888888888888888888888888888888,   2888888888888888886    %8888881     999999999999999999",
"99999999999     288888888888888888888888888888888888888881    ,888888888888888888*    5888887     999999999999999999",
"9999999999     *88888888888888888888888888888888888888881     ,8888888888888888882    :888888&     99999999999999999",
"999999999     @78888888888888888888888888888888888888881     #78888888888888888888@   #888888<     99999999999999999",
"99999999      4888888888888888888888888888888888888888-     O588888888888888888888:    2888886     99999999999999999",
"99999999     ,888888888888888888888888888888888888888-      ;8888888888888888888885    :888888#    99999999999999999",
"9999999     &888888888888888888888888888888888888887%       18888888888888888888888#   #888888:     9999999999999999",
"9999999    @688888888888888888888888888888888888885#        48888888888888888888888:    5888882     9999999999999999",
"999999     ,88888888888888888888888888888888888881@         788888888888888888888882    <888887     9999999999999999",
"999999    @7888888888888888888888888888888888887-          @888888888888888888888888    &888888%    9999999999999999",
"999999    -888888888888888888888888888888888885%           &888888888888888888888888&    888888:     999999999999999",
"999999    28888888888888888888888888888888888<@            ,888888888888888888888888,    4888881     999999999999999",
"99999     8888888888888888888888888888888887*              58888888888888888888888884    ,888885     999999999999999",
"99999    %888875888888888888888888888888882@              @88888888888888888888888888    *888888     999999999999999",
"99999    &8881  %788888888888888888888887:                -88888888888888888888888888&   @888888&    999999999999999",
"99999    ,887 X  -8888888888888888888885%                 288888888888888888888888888:    688888:     99999999999999",
"99999    ,885    &8887-&188888888888881@           99    #8888888888888888888888888881    4888881     99999999999999",
"99999    &888%   1888&   288888888888:            99     ,8888888888888888888888888885    ,888884     99999999999999",
"99999    #8887-&18884    ,8888888887&           9999    @78888888888888888888888888888    *888888     99999999999999",
"99999     6888888888%    1888888887%           9999     -88888888888888888888888888888%   &888888@    99999999999999",
"999999    ,88888888<    #888888885@          999999    @788888888888888888888888888888*    888888&    99999999999999",
"999999    @78888886@    288888885@          999999     ,888888888888888888888888888888,    788888:     9999999999999",
"999999     &888888&    &88888886@          999999     #88888888888888888888888888888881    488888,     9999999999999",
"9999999     *7888,     58888887%          999999      488888888888888888888888888888884    1888882     9999999999999",
"9999999      %44>     ,8888887%         99999999     ,888888888888888888888888888888886    ,888884     9999999999999",
"99999999             &8888887%         99999999     &8888888888888888888888888888888888    :888887     9999999999999",
"999999999           .3888887%         99999999     #78888888888888888888888888888888888@   &888888     9999999999999",
"9999999999            ,8884@         99999999     @588888888888888888888888888888888888&   &888888#    9999999999999",
"99999999999            %*@          9999999      @5888888888888888888888888888888888888&   #888888&     999999999999",
"9999999999999                      9999999      @58888888888888888888888888888888888888-    888888&     999999999999",
"999999999999999999                9999999      @588888888888888888888888888888888888888,    888888,     999999999999",
"99999999999999999999             9999999      @5888888888888888888888888888888888888888,    888888,     999999999999",
"999999999999999999999          99999999      %58888888888888888888888888888888888888888,    488888,     999999999999",
"9999999999999999999999999999999999999       &7888888888888888888888888888888888888888884    4888884     999999999999",
"999999999999999999999999999999999999       -88888888888888888888888888888888888888888884    4888884     999999999999",
"99999999999999999999999999999999999       1888888888888888888888888888888888888888888884    4888884     999999999999",
"9999999999999999999999999999999999      @58888888888888888888888888888888888888888888884    4888884     999999999999",
"999999999999999999999999999999999      %788888888888888888888888888888888888888888888884    4888888     999999999999",
"99999999999999999999999999999999      -8888888888888888888888888888888888888888888888884    1888888      99999999999",
"9999999999999999999999999999999      <88888888888888888888888888888888888888888888888885    ,888888      99999999999",
"999999999999999999999999999999     @1888888888888888888888888888888888888888888888888888    ,888888      99999999999",
"99999999999999999999999999999     @58888888888888888888888888888888888888888888888888888    ,888888      99999999999",
"9999999999999999999999999999     @588888888888888888888888888888888888888888888888888888    ,888888#     99999999999",
"999999999999999999999999999     @5888888888888888888888888888888888888888888888888888888    ,888888&     99999999999",
"999999999999999999999999999     28888888888888888888888888888888888888888888888888888888    ,888888&     99999999999",
"99999999999999999999999999     ,88888888888888888888888888888888888888888888888888888887    ,888888&     99999999999",
"9999999999999999999999999     &888888888888888888888888888888888888888888888888888888884    2888888&     99999999999",
"9999999999999999999999999     6888888888888888888888888888888888888888888888888888888884    4888888&     99999999999",
"999999999999999999999999     ,8888888888888888888888888888888888888888888888888888888884    4888888&     99999999999",
"999999999999999999999999    @78888888888888888888888888888888888888888888888888888888884    4888888&     99999999999",
"999999999999999999999999    -88888888888888888888888888888888888888888888888888888888884    4888888&     99999999999",
"99999999999999999999999     588888888888888888888888888888888888888888888888888888888884    4888888&     99999999999",
"99999999999999999999999    #888888888888888888888888888888888888888888888888888888888885    6888888&     99999999999",
"99999999999999999999999    -888888888888888888888888888888888888888888888888888888888888-  ,8888888&     99999999999",
"99999999999999999999999    <88888888888888888888888888888888888888888888888888888888888888888888888&     99999999999",
"99999999999999999999999    488888888888888888888888888888888888888888888888888888888888888888888888&     99999999999",
"9999999999999999999999     788888888888888888888888888888888888888888888888888888888888888888888888&     99999999999",
"9999999999999999999999     &&&&&&&&&&&&&&&&&&&&&&&&&&&&&&&&&&&&&&&&&&&&&&&&&&&&&&&&&&&&&&&&&&&&&&&&@     99999999999",
"9999999999999999999999                                                                                   99999999999",
"9999999999999999999999                                                                                   99999999999",
"99999999999999999999999                                                                                 999999999999",
"999999999999999999999999                                                                                999999999999",
"999999999999999999999999999999                                                                        99999999999999",
"99999999999999999999999999999999999999999999999999999999999999999999999999999999999999999999999999999999999999999999",
"99999999999999999999999999999999999999999999999999999999999999999999999999999999999999999999999999999999999999999999",
"99999999999999999999999999999999999999999999999999999999999999999999999999999999999999999999999999999999999999999999",
"99999999999999999999999999999999999999999999999999999999999999999999999999999999999999999999999999999999999999999999",
"99999999999999999999999999999999999999999999999999999999999999999999999999999999999999999999999999999999999999999999",
"99999999999999999999999999999999999999999999999999999999999999999999999999999999999999999999999999999999999999999999",
"99999999999999999999999999999999999999999999999999999999999999999999999999999999999999999999999999999999999999999999",
"99999999999999999999999999999999999999999999999999999999999999999999999999999999999999999999999999999999999999999999",
"99999999999999999999999999999999999999999999999999999999999999999999999999999999999999999999999999999999999999999999",
"99999999999999999999999999999999999999999999999999999999999999999999999999999999999999999999999999999999999999999999",
"99999999999999999999999999999999999999999999999999999999999999999999999999999999999999999999999999999999999999999999"
};
