/* XPM */
static char *result[] = {
/* columns rows colors chars-per-pixel */
"127 128 25 1 ",
"  c black",
". c #0E0E0E",
"X c gray11",
"o c #2A2A2A",
"O c gray17",
"+ c #353535",
"@ c #393939",
"# c gray28",
"$ c #565656",
"% c #646464",
"& c #656565",
"* c DimGray",
"= c gray42",
"- c gray45",
"; c #818181",
": c gray55",
"> c gray56",
", c #979797",
"< c gray62",
"1 c #ACACAC",
"2 c #BBBBBB",
"3 c gray79",
"4 c #D8D8D8",
"5 c #E6E6E6",
"6 c None",
/* pixels */
"6666666666666666666666666666666666666666666666666666666666666666666666666666666666666666666666666666666666666666666666666666666",
"6666666666666666666666666666666666666666666666666666666666666666666666666666666666666666666666666666666666666666666666666666666",
"6666666666666666666666666666666666666666666666666666666666666666666666666666666666666666666666666666666666666666666666666666666",
"6666666666666666666666666666666666666666666666666666666666666666666666666666666666666666666666666666666666666666666666666666666",
"6666666666666666666666666666666666666666666666666666666666666666666666666666666666666666666666666666666666666666666666666666666",
"666666666666666666666666666666666666666666666666666666666      6666666666666666666666666666666666666666666666666666666666666666",
"6666666666666666666666666666666666666666666666666666666           6666666666666666666666666666666666666666666666666666666666666",
"66666666666666666666666666666666666666666666666666666              666666666666666666666666666666666666666666666666666666666666",
"6666666666666666666666666666666666666666666666666666                66666666666666666666666666666666666666666666666666666666666",
"6666666666666666666666666666666666666666666666666666     .%<1-X      6666666666666666666666666666666666666666666666666666666666",
"666666666666666666666666666666666666666666666666666     $455555;     6666666666666666666666666666666666666666666666666666666666",
"666666666666666666666666666666666666666666666666666    $55555555>     666666666666666666666666666666666666666666666666666666666",
"66666666666666666666666666666666666666666666666666    X5555555555@    666666666666666666666666666666666666666666666666666666666",
"66666666666666666666666666666666666666666666666666    ;5555555555<     66666666666666666666666666666666666666666666666666666666",
"66666666666666666666666666666666666666666666666666    155555555554     66666666666666666666666666666666666666666666666666666666",
"66666666666666666666666666666666666666666666666666    155555555555     66666666666666666666666666666666666666666666666666666666",
"66666666666666666666666666666666666666666666666666    >55555555552     66666666666666666666666666666666666666666666666666666666",
"66666666666666666666666666666666666666666666666666    @5555555555-     66666666666666666666666666666666666666666666666666666666",
"66666666666666666666666666666666666666666666666666     1555555553.     66666666666666666666666666666666666666666666666666666666",
"666666666666666666666666666666666666666666666666666    .25555553o      66666666666666666666666666666666666666666666666666666666",
"666666666666666666666666666666666666666666666666666      $2553-.       66666666666666666666666666666666666666666666666666666666",
"6666666666666666666666666666666666666666666666666666                   66666666666666666666666666666666666666666666666666666666",
"66666666666666666666666666666666666666666666666666666                  66666666666666666666666666666666666666666666666666666666",
"66666666666666666666666666666666666666666666666666666                 666666666666666666666666666666666666666666666666666666666",
"6666666666666666666666666666666666666666666666666666                  666666666666666666666666666666666666666666666666666666666",
"66666666666666666666666666666666666666666666666666         O+          66666666666666666666666666666666666666666666666666666666",
"666666666666666666666666666666666666666666666666        .%3554-X        6666666666666666666666666666666666666666666666666666666",
"66666666666666666666666666666666666666666666666       .-45555555>X        66666666666666666666666666666666666666666666666666666",
"666666666666666666666666666666666666666666666       .-455555555555>X       6666666666666666666666666666666666666666666666666666",
"66666666666666666666666666666666666666666666       %4555555555555555-.       66666666666666666666666666666666666666666666666666",
"6666666666666666666666666666666666666666666      o25555555555555555553#       6666666666666666666666666666666666666666666666666",
"66666666666666666666666666666666666666666       -5555555555555555555555<.      666666666666666666666666666666666666666666666666",
"6666666666666666666666666666666666666666      X25555555555555555555555553o      66666666666666666666666666666666666666666666666",
"666666666666666666666666666666666666666      @4555555555555555555555555555$      6666666666666666666666666666666666666666666666",
"66666666666666666666666666666666666666      $555555555555555555555555555555>      666666666666666666666666666666666666666666666",
"6666666666666666666666666666666666666      -55555555555555555555555555555555>      66666666666666666666666666666666666666666666",
"6666666666666666666666666666666666666     >5555555555555555555555555555555555>      6666666666666666666666666666666666666666666",
"666666666666666666666666666666666666     $55555555555555552@@>5555555555555555>      666666666666666666666666666666666666666666",
"66666666666666666666666666666666666     $55555555555555555.   35555555555555555;     666666666666666666666666666666666666666666",
"6666666666666666666666666666666666     o455555555555555555    155555555555555555#     66666666666666666666666666666666666666666",
"6666666666666666666666666666666666    .2555555555555555555    1555555555555555554X     6666666666666666666666666666666666666666",
"666666666666666666666666666666666     ;5555555555555555555    15555555555555555551     6666666666666666666666666666666666666666",
"666666666666666666666666666666666    @55555555555555555555    15555555555555555555$     666666666666666666666666666666666666666",
"66666666666666666666666666666666     155555555555555555555    155555555555555555554.    666666666666666666666666666666666666666",
"66666666666666666666666666666666    $555555555555555555555    155555555555555555555-     66666666666666666666666666666666666666",
"66666666666666666666666666666666    155555555555552@@@@@@@    o@@@@@@>55555555555554.    66666666666666666666666666666666666666",
"6666666666666666666666666666666    o55555555555555.                   35555555555555$     6666666666666666666666666666666666666",
"6666666666666666666666666666666    >55555555555555                    155555555555552     6666666666666666666666666666666666666",
"6666666666666666666666666666666    455555555555555@                  o555555555555555X    6666666666666666666666666666666666666",
"666666666666666666666666666666    o5555555555555555>------    $----->4555555555555555%     666666666666666666666666666666666666",
"666666666666666666666666666666    -55555555555555555555555    15555555555555555555555<     666666666666666666666666666666666666",
"666666666666666666666666666666    <55555555555555555555555    155555555555555555555553     666666666666666666666666666666666666",
"666666666666666666666666666666    255555555555555555555555    155555555555555555555555     666666666666666666666666666666666666",
"666666666666666666666666666666    555555555555555555555555    155555555555555555555555X     66666666666666666666666666666666666",
"666666666666666666666666666666    555555555555555555555555    155555555555555555555555@     66666666666666666666666666666666666",
"666666666666666666666666666666    555555555555555555555555    155555555555555555555555@     66666666666666666666666666666666666",
"666666666666666666666666666666    555555555555555555555555@  o555555555555555555555555@     66666666666666666666666666666666666",
"666666666666666666666666666666    4555555555555555555555555>;4555555555555555555555555.     66666666666666666666666666666666666",
"666666666666666666666666666666    1555555555555555555555555555555555555555555555555555      66666666666666666666666666666666666",
"666666666666666666666666666666    ;555555555555555555555555555555555555555555555555551      66666666666666666666666666666666666",
"666666666666666666666666666666    #55555555555555555555555555555555555555555555555555-      66666666666666666666666666666666666",
"666666666666666666666666666666    .45555555555555555555555555555555555555555555555555o      66666666666666666666666666666666666",
"6666666666666666666666666666666    >5555555555555555555555555555555555555555555555552       66666666666666666666666666666666666",
"6666666666666666666666666666666    X555555555555555555555555555555555555555555555555$      666666666666666666666666666666666666",
"6666666666666666666666666666666     >55555555555555555555555555555555555555555555552       666666666666666666666666666666666666",
"66666666666666666666666666666666    .4555555555555555555555555555555555555555555555o       666666666666666666666666666666666666",
"66666666666666666666666666666666     o45555555555555555555555555555555555555555555$        666666666666666666666666666666666666",
"666666666666666666666666666666666     $455555555555555555555555555555555555555555$        6666666666666666666666666666666666666",
"6666666666666666666666666666666666     o3555555555555555555555555555555555555554$         6666666666666666666666666666666666666",
"6666666666666666666666666666666666      .;555555555555555555555555555555555555<X         66666666666666666666666666666666666666",
"66666666666666666666666666666666666       X&,111111111111111111111111111111,*X          666666666666666666666666666666666666666",
"666666666666666666666666666666666666                                                   6666666666666666666666666666666666666666",
"66666666666666666666666666666666666666                                                 6666666666666666666666666666666666666666",
"666666666666666666666666666666666666666                                               66666666666666666666666666666666666666666",
"666666666666666666666666666666666666666                                              666666666666666666666666666666666666666666",
"66666666666666666666666666666666666666     .25555555555555555555555555555552o        666666666666666666666666666666666666666666",
"6666666666666666666666666666666666666     o3555555555555555555555555555555554#      6666666666666666666666666666666666666666666",
"666666666666666666666666666666666666     o455555555555555555555555555555555555#     6666666666666666666666666666666666666666666",
"666666666666666666666666666666666666    .25555555555555555555555555555555555554o     666666666666666666666666666666666666666666",
"66666666666666666666666666666666666     <555555555555555555555555555555555555552.    666666666666666666666666666666666666666666",
"66666666666666666666666666666666666    @5555555555555555555555555555555555555555-     66666666666666666666666666666666666666666",
"66666666666666666666666666666666666    155555555555555555555555555555555555555554.    66666666666666666666666666666666666666666",
"6666666666666666666666666666666666    @555555555555555555555555555555555555555555%     6666666666666666666666666666666666666666",
"6666666666666666666666666666666666    =111111111111111111111111111111111111111111:     6666666666666666666666666666666666666666",
"6666666666666666666666666666666666                                                     6666666666666666666666666666666666666666",
"666666666666666666666666666666666                                                      6666666666666666666666666666666666666666",
"666666666666666666666666666666666                                                       666666666666666666666666666666666666666",
"666666666666666666666666666666666                                                       666666666666666666666666666666666666666",
"666666666666666666666666666666666    -55555555555555555555555555555555555555555555;     666666666666666666666666666666666666666",
"666666666666666666666666666666666    $55555555555555555555555555555555555555555555-     666666666666666666666666666666666666666",
"666666666666666666666666666666666    o55555555555555555555555555555555555555555555$     666666666666666666666666666666666666666",
"6666666666666666666666666666666666    -555555555555555555555555555555555555555555;.     666666666666666666666666666666666666666",
"6666666666666666666666666666666666     X>555555555555555555555555555555555555551@       666666666666666666666666666666666666666",
"6666666666666666666666666666666666       X-3555555555555555555555555555555553;X         666666666666666666666666666666666666666",
"66666666666666666666666666666666666         X%<35555555555555555555555554<%o            666666666666666666666666666666666666666",
"6666666666666666666666666666666666666           .@--1145555555555311--@.               6666666666666666666666666666666666666666",
"66666666666666666666666666666666666666                                                66666666666666666666666666666666666666666",
"6666666666666666666666666666666666666666                                             666666666666666666666666666666666666666666",
"6666666666666666666666666666666666666666666                                        66666666666666666666666666666666666666666666",
"6666666666666666666666666666666666666666666666                                   6666666666666666666666666666666666666666666666",
"66666666666666666666666666666666666666666666666                                666666666666666666666666666666666666666666666666",
"66666666666666666666666666666                              %-.                             666666666666666666666666666666666666",
"666666666666666666                                      .%3554-X                                      6666666666666666666666666",
"66666666666666                                       .$<55555555<$X                                       666666666666666666666",
"66666666666                                      @$;2555555555555553>%@.                                    6666666666666666666",
"6666666666                   o@@@@@@@@@@#---;114555555555555555555555555511>---#@@@@@@@@@@@                  666666666666666666",
"666666666         o$-113555555555555555555555555555555555555555555555555555555555555555555555555411;%@         6666666666666666",
"66666666      X%145555555555555555555555555555555555555555555555555555555555555555555555555555555555554>X       666666666666666",
"6666666     .>5555555555555555555555555555555555555555552-X  X%155555555555555555555555555555555555555555>X      66666666666666",
"666666     o455555555555111111111111355555555555211<-$@          o$->11255555555555411111111111145555555554%      6666666666666",
"66666     o455553<-@o                                                                              o@%>35555<.     666666666666",
"66666     ;451;o                                                                                        X%144-     666666666666",
"66666                                                                                                              666666666666",
"666666                                                                                                             666666666666",
"6666666                                                    6666666666                                              666666666666",
"66666666                  666666666666666666666666666666666666666666666666666666666666666666666666666              666666666666",
"66666666666         66666666666666666666666666666666666666666666666666666666666666666666666666666666666666        6666666666666",
"6666666666666666666666666666666666666666666666666666666666666666666666666666666666666666666666666666666666666666666666666666666",
"6666666666666666666666666666666666666666666666666666666666666666666666666666666666666666666666666666666666666666666666666666666",
"6666666666666666666666666666666666666666666666666666666666666666666666666666666666666666666666666666666666666666666666666666666",
"6666666666666666666666666666666666666666666666666666666666666666666666666666666666666666666666666666666666666666666666666666666",
"6666666666666666666666666666666666666666666666666666666666666666666666666666666666666666666666666666666666666666666666666666666",
"6666666666666666666666666666666666666666666666666666666666666666666666666666666666666666666666666666666666666666666666666666666",
"6666666666666666666666666666666666666666666666666666666666666666666666666666666666666666666666666666666666666666666666666666666",
"6666666666666666666666666666666666666666666666666666666666666666666666666666666666666666666666666666666666666666666666666666666",
"6666666666666666666666666666666666666666666666666666666666666666666666666666666666666666666666666666666666666666666666666666666",
"6666666666666666666666666666666666666666666666666666666666666666666666666666666666666666666666666666666666666666666666666666666",
"6666666666666666666666666666666666666666666666666666666666666666666666666666666666666666666666666666666666666666666666666666666"
};
