/* XPM */
static char *result[] = {
/* columns rows colors chars-per-pixel */
"128 128 27 1 ",
"  c black",
". c gray2",
"X c gray3",
"o c #0E0E0E",
"O c gray11",
"+ c #2A2A2A",
"@ c gray17",
"# c #393939",
"$ c gray25",
"% c #464646",
"& c gray28",
"* c #565656",
"= c #646464",
"- c #656565",
"; c gray42",
": c gray45",
"> c #818181",
", c gray56",
"< c gray60",
"1 c gray62",
"2 c #ACACAC",
"3 c #BBBBBB",
"4 c gray79",
"5 c #CACACA",
"6 c #D8D8D8",
"7 c #E6E6E6",
"8 c None",
/* pixels */
"88888888888888888888888888888888888888888888888888888888888888888888888888888888888888888888888888888888888888888888888888888888",
"88888888888888888888888888888888888888888888888888888888888888888888888888888888888888888888888888888888888888888888888888888888",
"88888888888888888888888888888888888888888888888888888888888888888888888888888888888888888888888888888888888888888888888888888888",
"88888888888888888888888888888888888888888888888888888888888888888888888888888888888888888888888888888888888888888888888888888888",
"88888888888888888888888888888888888888888888888888888888888888888888888888888888888888888888888888888888888888888888888888888888",
"888888888888888888888888888888888888888888888888888888888      88888888888888888888888888888888888888888888888888888888888888888",
"888888888888888888888888888888888888888888888888888888888       8888888888888888888888888888888888888888888888888888888888888888",
"88888888888888888888888888888888888888888888888888888888         888888888888888888888888888888888888888888888888888888888888888",
"8888888888888888888888888888888888888888888888888888888     +     88888888888888888888888888888888888888888888888888888888888888",
"888888888888888888888888888888888888888888888888888888     :7&     8888888888888888888888888888888888888888888888888888888888888",
"888888888888888888888888888888888888888888888888888888    #776+    8888888888888888888888888888888888888888888888888888888888888",
"888888888888888888888888888888888888888888888888888888    47773    8888888888888888888888888888888888888888888888888888888888888",
"888888888888888888888888888888888888888888888888888888    77777    8888888888888888888888888888888888888888888888888888888888888",
"888888888888888888888888888888888888888888888888888888    77777     888888888888888888888888888888888888888888888888888888888888",
"8888888888888888888888888888888888888888888888888         77777         88888888888888888888888888888888888888888888888888888888",
"888888888888888888888888888888888888888888888888          77777           888888888888888888888888888888888888888888888888888888",
"88888888888888888888888888888888888888888888888           77777            88888888888888888888888888888888888888888888888888888",
"8888888888888888888888888888888888888888888888            77777             8888888888888888888888888888888888888888888888888888",
"888888888888888888888888888888888888888888888     >2222222777772222222:     8888888888888888888888888888888888888888888888888888",
"888888888888888888888888888888888888888888888    >777777777777777777777>    8888888888888888888888888888888888888888888888888888",
"888888888888888888888888888888888888888888888    27777777777777777777772    8888888888888888888888888888888888888888888888888888",
"888888888888888888888888888888888888888888888    27777777777777777777772    8888888888888888888888888888888888888888888888888888",
"888888888888888888888888888888888888888888888    *777777777777777777774#     888888888888888888888888888888888888888888888888888",
"888888888888888888888888888888888888888888888     +#######77777::::&##o      888888888888888888888888888888888888888888888888888",
"8888888888888888888888888888888888888888888888            77777              888888888888888888888888888888888888888888888888888",
"88888888888888888888888888888888888888888888888           77777              888888888888888888888888888888888888888888888888888",
"888888888888888888888888888888888888888888888888          77777             8888888888888888888888888888888888888888888888888888",
"88888888888888888888888888888888888888888888888888        77777            88888888888888888888888888888888888888888888888888888",
"888888888888888888888888888888888888888888888888888888    77777          8888888888888888888888888888888888888888888888888888888",
"888888888888888888888888888888888888888888888888888888    77777        888888888888888888888888888888888888888888888888888888888",
"888888888888888888888888888888888888888888888888888888    32:24       8888888888888888888888888888888888888888888888888888888888",
"888888888888888888888888888888888888888888888888888888                8888888888888888888888888888888888888888888888888888888888",
"888888888888888888888888888888888888888888888888888888               88888888888888888888888888888888888888888888888888888888888",
"88888888888888888888888888888888888888888888888888888                88888888888888888888888888888888888888888888888888888888888",
"8888888888888888888888888888888888888888888888888888      o&=#       88888888888888888888888888888888888888888888888888888888888",
"888888888888888888888888888888888888888888888888888      :67776=      8888888888888888888888888888888888888888888888888888888888",
"888888888888888888888888888888888888888888888888888    o377777771o     888888888888888888888888888888888888888888888888888888888",
"88888888888888888888              8888888888888888    o37777777771     88888888888888              88888888888888888888888888888",
"888888888888888888                   888888888888     177777777777=     888888888                     88888888888888888888888888",
"8888888888888888                        888888888    &7777777777776O    8888888                         888888888888888888888888",
"88888888888888          +####O            8888888    477777777777772     8888            #####O           8888888888888888888888",
"8888888888888       +>3777777773>&o         8888    *777777777777777#    88         +:26777777772>+        888888888888888888888",
"888888888888      *47777777777777771*        888    3777777777777777,            O>47777777777777774:o      88888888888888888888",
"88888888888     +277777777777777777774:o       8    77777777777777774          #2777777777777777777776=      8888888888888888888",
"8888888888     *677777777777777777777776:o         +77777777777777777        O27777777777777777777777773O     888888888888888888",
"888888888     *777777777777777777777777774&        #77777777777777777       :7777777777777777777777777776&     88888888888888888",
"888888888    *777777777777777777777777777771o      #7777777777777777,     +3777777777777777777777777777777*     8888888888888888",
"88888888    +67777777777777777777777777777776#     .777777777777777,     *677777777777777777777777777777777*     888888888888888",
"8888888     3777777777777777777777777777777777:     *7777777777777,     >77777777777777777777777777777777777+     88888888888888",
"8888888    *77777777777777777777777777777777777,     *777777777772     ,7777777777777777777777777777777777776o    88888888888888",
"8888888    47777777777777777777777777777777777773o    =7777777774o    ,777777777777777777777777777777777777771     8888888888888",
"888888    *777777777777777777777777777777777777773o    ,77777777+    ,7777777777777777777777777777777777777777#    8888888888888",
"888888    47777777777777777777777777777777777777773o    2777777=    *777777777777777777777777777777777777777771     888888888888",
"88888    #777777777777777777777777777777777777777771    o677772    +7777777777777777777777777777777777777777777O    888888888888",
"88888    >777777777777777777777777777777777777777777,    #7777+   o47777777777777777777777777777777777777777777*    888888888888",
"88888    37777777777777777777777777777777777777777777*    :77>    177777777777777777777777777777777777777777777,     88888888888",
"88888    777777777777777777777777777777777777777777777+    46o   #7777777777777777777777777777777777777777777772     88888888888",
"88888   +7777777777777777777777777777777777777777777773o   #:    47777777777777777777777777777777777777777777772     88888888888",
"88888   #7777777777777777777777777777777777777777777777>        *77777777777777777777777777777777777777777777774     88888888888",
"88888   #77777777777777777777777777777777777777777777777+       477777777777777777777777777777777777777777777772     88888888888",
"88888   O777777777777777777777777777777777777777777777772      *777777777777777777777777777777777777777777777771      8888888888",
"88888    777777777777777777777777777777777777777777777777*     477777777777777777777777777777777777777777777777=      8888888888",
"88888    2777777777777777777777777777777777777777777777774    +777777777777777777777777777777777777777777777777+     88888888888",
"88888    =777777777777777777777777777777777777777777777777*   :777777777777777777777777777777777777777777777774      88888888888",
"888888   O777777777777777777777777777777777777777777777777:   :77777777777777777777777777777777777777777777777=      88888888888",
"888888    177777777777777777777777777777777777777777777777:   :77777777777777777777777777777777777777777777776o      88888888888",
"888888    +77777777777777777777777777777777777777777777777:   :7777777777777777777777777777777777777777777777=       88888888888",
"8888888    ,7777777777777777777777777777777777777777777777:   :7777777777777777777777777777777777777777777773       888888888888",
"8888888    o6777777777777777777777777777777777777777777777:   :777777777777777777777777777777777777777777776+       888888888888",
"88888888    &777777777777777777777777777777777777777777777:   :77777777777777777777777777777777777777777777*        888888888888",
"88888888     :77777777777777777777777777777777777777777777:   :7777777777777777777777777777777777777777777,        8888888888888",
"888888888     ,7777777777777777777777777777777777777777777:   :7777777777777777777777777777777777777777771        88888888888888",
"8888888888     2777777777777777777777777777777777777777777:   :777777777777777777777777777777777777777773o        88888888888888",
"8888888888     o277777777777777777777777777777777777777777:   :77777777777777777777777777777777777777773o        888888888888888",
"88888888888      ,7777777777777777777777777777777777742222*   ;267777777777777777777777777777777777777,         8888888888888888",
"888888888888      >77777777777777777777777772,:*##                 o##::23777777777777777777777777777>         88888888888888888",
"8888888888888      &67777777777777777761:#O                                +*>2777777777777777777776*         888888888888888888",
"88888888888888      O377777777777761=+                                          #:37777777777777773+          888888888888888888",
"888888888888888       :777777776,&                   o##########                   o*177777777777>o          8888888888888888888",
"88888888888888888      O27777,&             O#::2267777777777777777321:*#o            o*37777774#           88888888888888888888",
"888888888888888888       #5:o          O*>2777777777777777777777777777777742:&o          #,777:o          8888888888888888888888",
"8888888888888888888                O*,677777777777777777777777777777777777777773>&         O;O           88888888888888888888888",
"888888888888888888888           O=37777777777777777777777777777777777777777777777761*                   888888888888888888888888",
"8888888888888888888888        *2777777777777777777777777777777777777777777777777777776,+              88888888888888888888888888",
"88888888888888888888888    o:677777777777777777777777777777777777777777777777777777777772&           888888888888888888888888888",
"88888888888888888888888    677777777777777777777777777777777777777777777777777777777777777-         8888888888888888888888888888",
"88888888888888888888888    777777777777777777621::###+          ###*::22777777777777777777:        88888888888888888888888888888",
"88888888888888888888888    77777777777772>*#                             o#=,3777777777777:       888888888888888888888888888888",
"88888888888888888888888    7777777761=+                                        #:277777777:      8888888888888888888888888888888",
"88888888888888888888888    777774>+                                               o&,67777:      8888888888888888888888888888888",
"88888888888888888888888    776>+              +#::,2227777777776222>:*#O              &177:      8888888888888888888888888888888",
"88888888888888888888888    2*           O&:2477777777777777777777777777772,:#           o:-      8888888888888888888888888888888",
"88888888888888888888888             O*,4777777777777777777777777777777777777773>&o              88888888888888888888888888888888",
"88888888888888888888888          +>377777777777777777777777777777777777777777777771*o           88888888888888888888888888888888",
"88888888888888888888888       O=477777777777777777777777777777777777777777777777777771*         88888888888888888888888888888888",
"88888888888888888888888     #,7777777777777777777777777777777777777777777777777777777776:o      88888888888888888888888888888888",
"88888888888888888888888    277777777777777777777777777777777777777777777777777777777777777$     88888888888888888888888888888888",
"88888888888888888888888    77777777777777777777622>:::#########&:::,2277777777777777777777:     88888888888888888888888888888888",
"88888888888888888888888    777777777777773,:#+                          #*:247777777777777:     88888888888888888888888888888888",
"88888888888888888888888    77777777761=#                                     o&:2777777777:     88888888888888888888888888888888",
"88888888888888888888888    7777773:+                                             o&,477777:     88888888888888888888888888888888",
"88888888888888888888888    7773=O               +#*:::122222222,:::##O               +>677:     88888888888888888888888888888888",
"88888888888888888888888    6,+           o#=,2677777777777777777777777742:*+            *2:     88888888888888888888888888888888",
"88888888888888888888888    o         O*,47777777777777777777777777777777777772>&o         o     88888888888888888888888888888888",
"88888888888888888888888           &>4777777777777777777777777777777777777777777772=O            88888888888888888888888888888888",
"88888888888888888888888        +,6777777777777777777777777777777777777777777777777773=O         88888888888888888888888888888888",
"88888888888888888888888     X%477777777777777777777777777777777777777777777777777777777<@       88888888888888888888888888888888",
"88888888888888888888888       O,777777777777777777777777777777777777777777777777777774:o        88888888888888888888888888888888",
"888888888888888888888888        o=47777777777777777777777777777777777777777777777771*           88888888888888888888888888888888",
"88888888888888888888888888         +>47777777777777777777777777777777777777777773=O            888888888888888888888888888888888",
"8888888888888888888888888888          +=1777777777777777777777777777777777774,*o              8888888888888888888888888888888888",
"88888888888888888888888888888             +=,2777777777777777777777777762:&O                 88888888888888888888888888888888888",
"88888888888888888888888888888888               O#*:>22237777772221::&#                     8888888888888888888888888888888888888",
"8888888888888888888888888888888888                                                      8888888888888888888888888888888888888888",
"8888888888888888888888888888888888888                                                8888888888888888888888888888888888888888888",
"88888888888888888888888888888888888888888                                         8888888888888888888888888888888888888888888888",
"8888888888888888888888888888888888888888888888                                88888888888888888888888888888888888888888888888888",
"88888888888888888888888888888888888888888888888888888                   88888888888888888888888888888888888888888888888888888888",
"88888888888888888888888888888888888888888888888888888888888888888888888888888888888888888888888888888888888888888888888888888888",
"88888888888888888888888888888888888888888888888888888888888888888888888888888888888888888888888888888888888888888888888888888888",
"88888888888888888888888888888888888888888888888888888888888888888888888888888888888888888888888888888888888888888888888888888888",
"88888888888888888888888888888888888888888888888888888888888888888888888888888888888888888888888888888888888888888888888888888888",
"88888888888888888888888888888888888888888888888888888888888888888888888888888888888888888888888888888888888888888888888888888888",
"88888888888888888888888888888888888888888888888888888888888888888888888888888888888888888888888888888888888888888888888888888888",
"88888888888888888888888888888888888888888888888888888888888888888888888888888888888888888888888888888888888888888888888888888888",
"88888888888888888888888888888888888888888888888888888888888888888888888888888888888888888888888888888888888888888888888888888888",
"88888888888888888888888888888888888888888888888888888888888888888888888888888888888888888888888888888888888888888888888888888888",
"88888888888888888888888888888888888888888888888888888888888888888888888888888888888888888888888888888888888888888888888888888888"
};
