/* XPM */
static char *result[] = {
/* columns rows colors chars-per-pixel */
"140 128 37 1 ",
"  c black",
". c gray1",
"X c #040404",
"o c #070707",
"O c #090909",
"+ c gray4",
"@ c #0E0E0E",
"# c #101010",
"$ c #151515",
"% c gray9",
"& c gray11",
"* c gray12",
"= c #202020",
"- c #222222",
"; c gray14",
": c #2A2A2A",
"> c #323232",
", c #393939",
"< c gray28",
"1 c gray31",
"2 c #565656",
"3 c #5D5D5D",
"4 c #646464",
"5 c #6C6C6C",
"6 c gray45",
"7 c #767676",
"8 c #797979",
"9 c #818181",
"0 c gray55",
"q c gray56",
"w c gray62",
"e c #ACACAC",
"r c #BBBBBB",
"t c gray79",
"y c #D8D8D8",
"u c #E6E6E6",
"i c None",
/* pixels */
"iiiiiiiiiiiiiiiiiiiiiiiiiiiiiiiiiiiiiiiiiiiiiiiiiiiiiiiiiiiiiiiiiiiiiiiiiiiiiiiiiiiiiiiiiiiiiiiiiiiiiiiiiiiiiiiiiiiiiiiiiiiiiiiiiiiiiiiiiiii",
"iiiiiiiiiiiiiiiiiiiiiiiiiiiiiiiiiiiiiiiiiiiiiiiiiiiiiiiiiiiiiiiiiiiiiiiiiiiiiiiiiiiiiiiiiiiiiiiiiiiiiiiiiiiiiiiiiiiiiiiiiiiiiiiiiiiiiiiiiiii",
"iiiiiiiiiiiiiiiiiiiiiiiiiiiiiiiiiiiiiiiiiiiiiiiiiiiiiiiiiiiiiiiiiiiiiiiiiiiiiiiiiiiiiiiiiiiiiiiiiiiiiiiiiiiiiiiiiiiiiiiiiiiiiiiiiiiiiiiiiiii",
"iiiiiiiiiiiiiiiiiiiiiiiiiiiiiiiiiiiiiiiiiiiiiiiiiiiiiiiiiiiiiiiiiiiiiiiiiiiiiiiiiiiiiiiiiiiiiiiiiiiiiiiiiiiiiiiiiiiiiiiiiiiiiiiiiiiiiiiiiiii",
"iiiiiiiiiiiiiiiiiiiiiiiiiiiiiiiiiiiiiiiiiiiiiiiiiiiiiiiiiiiiiiiiiiiiiiiiiiiiiiiiiiiiiiiiiiiiiiiiiiiiiiiiiiiiiiiiiiiiiiiiiiiiiiiiiiiiiiiiiiii",
"iiiiiiiiiiiiiiiiiiiiiiiiiiiiiiiiiiiiiiiiiiiiiiiiiiiiiiiiiiiiiii      iiiiiiiiiiiiiiiiiiiiiiiiiiiiiiiiiiiiiiiiiiiiiiiiiiiiiiiiiiiiiiiiiiiiiii",
"iiiiiiiiiiiiiiiiiiiiiiiiiiiiiiiiiiiiiiiiiiiiiiiiiiiiiiiiiiiii          iiiiiiiiiiiiiiiiiiiiiiiiiiiiiiiiiiiiiiiiiiiiiiiiiiiiiiiiiiiiiiiiiiiii",
"iiiiiiiiiiiiiiiiiiiiiiiiiiiiiiiiiiiiiiiiiiiiiiiiiiiiiiiiiiii            iiiiiiiiiiiiiiiiiiiiiiiiiiiiiiiiiiiiiiiiiiiiiiiiiiiiiiiiiiiiiiiiiiii",
"iiiiiiiiiiiiiiiiiiiiiiiiiiiiiiiiiiii   iiiiiiiiiiiiiiiiiiii              iiiiiiiiiiiiiiiiiiiiiiiiiiiiiiiiiiiiiiiiiiiiiiiiiiiiiiiiiiiiiiiiiii",
"iiiiiiiiiiiiiiiiiiiiiiiiiiiiiiiii         iiiiiiiiiiiiiiii      @,,&      iiiiiiiiiiiiiiiiiiiiiiiiiiiiiiiiiiiiiiiiiiiiiiiiiiiiiiiiiiiiiiiiii",
"iiiiiiiiiiiiiiiiiiiiiiiiiiiiiiii           iiiiiiiiiiiiiii     6uuuu9      iiiiiiiiiiiiiiiii     iiiiiiiiiiiiiiiiiiiiiiiiiiiiiiiiiiiiiiiiiii",
"iiiiiiiiiiiiiiiiiiiiiiiiiiiiiii              iiiiiiiiiiii     6uuuuuu9     iiiiiiiiiiiiii          iiiiiiiiiiiiiiiiiiiiiiiiiiiiiiiiiiiiiiiii",
"iiiiiiiiiiiiiiiiiiiiiiiiiiiiii               iiiiiiiiiiii    @uuuuuuuu&    iiiiiiiiiiiii             iiiiiiiiiiiiiiiiiiiiiiiiiiiiiiiiiiiiiii",
"iiiiiiiiiiiiiiiiiiiiiiiiiiiiii     2tuyq@     iiiiiiiiiii    <uuuuuuuu4    iiiiiiiiiiii               iiiiiiiiiiiiiiiiiiiiiiiiiiiiiiiiiiiiii",
"iiiiiiiiiiiiiiiiiiiiiiiiiiiii     quuuuur@    iiiiiiiiiii    <uuuuuuuu4    iiiiiiiiiiii      ,,:      iiiiiiiiiiiiiiiiiiiiiiiiiiiiiiiiiiiiii",
"iiiiiiiiiiiiiiiiiiiiiiiiiiiii    ,uuuuuuuq     iiiiiiiiii    &uuuuuuuu&     iiiiiiiiii     :tuuue&     iiiiiiiiiiiiiiiiiiiiiiiiiiiiiiiiiiiii",
"iiiiiiiiiiiiiiiiiiiiiiiiiiiii    quuuuuuuu     iiiiiiiiii     9uuuuuuq      iiiiiiiiii    :yuuuuut@    iiiiiiiiiiiiiiiiiiiiiiiiiiiiiiiiiiiii",
"iiiiiiiiiiiiiiiiiiiiiiiiiiiii    euuuuuuuu     iiiiiiiiiii     9uuuuq@      iiiiiiiiii    wuuuuuuu6     iiiiiiiiiiiiiiiiiiiiiiiiiiiiiiiiiiii",
"iiiiiiiiiiiiiiiiiiiiiiiiiiiii    9uuuuuuuy     iiiiiiiiiii      &44:        iiiiiiiii     uuuuuuuue     iiiiiiiiiiiiiiiiiiiiiiiiiiiiiiiiiiii",
"iiiiiiiiiiiiiiiiiiiiiiiiiiiii    &uuuuuuu6     iiiiiiiiiiii                 iiiiiiiii     uuuuuuuue     iiiiiiiiiiiiiiiiiiiiiiiiiiiiiiiiiiii",
"iiiiiiiiiiii     iiiiiiiiiiii     2uuuuuq       iiiiiiiiiiii               iiiiiiiiiii    wuuuuuuu6     iiiiiiiiiii      iiiiiiiiiiiiiiiiiii",
"iiiiiiiii          iiiiiiiiiii     :qew2        iiiiiiiiiiiii              iiiiiiiiiii    ,uuuuuuy@      iiiiiiii          iiiiiiiiiiiiiiiii",
"iiiiiiii            iiiiiiiiii                 iiiiiiiiiiiiiii            iiiiiiiiiiii     <yuuut:       iiiiiii            iiiiiiiiiiiiiiii",
"iiiiiii              iiiiiiiiii                iiiiiiiiiiiiiii            iiiiiiiiiiiii     @26<         iiiiii              iiiiiiiiiiiiiii",
"iiiiii      @,,&      iiiiiiiiii               iiiiiiiiiiiiiii           iiiiiiiiiiiiii                 iiiiii      &,,@      iiiiiiiiiiiiii",
"iiiiii     2yuuu9@     iiiiiiiiii             iiiiiiiiiiiiiii            iiiiiiiiiiiiiii                iiiiii     9uuuy4     iiiiiiiiiiiiii",
"iiiiii    2uuuuuuw     iiiiiiiiiiii           iiiiiiiiiiiiiii    @&      iiiiiiiiiiiiiiii              iiiiii     quuuuuu4     iiiiiiiiiiiii",
"iiiii     yuuuuuuu,    iiiiiiiiiiii           iiiiiiiiiiiiiii    ,<     iiiiiiiiiiiiiiiii             iiiiiii    :uuuuuuuy@    iiiiiiiiiiiii",
"iiiii    ,uuuuuuuu6    iiiiiiiiiiii           iiiiiiiiiiiiiii    66     iiiiiiiiiiiiiiii             iiiiiiii    6uuuuuuuu,    iiiiiiiiiiiii",
"iiiii    ,uuuuuuuu6    iiiiiiiiiiii           iiiiiiiiiiiiiii    we      iiiiiiiiiiiiiii            iiiiiiiii    6uuuuuuuu,     iiiiiiiiiiii",
"iiiii     yuuuuuuu<     iiiiiiiiiii     ,     iiiiiiiiiiiiii     ty      iiiiiiiiiiiiii             iiiiiiiii    :uuuuuuuu@     iiiiiiiiiiii",
"iiiiii    4uuuuuue      iiiiiiiiiii     q     iiiiiiiiiiiiii    @uu&     iiiiiiiiiiiiii    &,      iiiiiiiiii     euuuuuu6      iiiiiiiiiiii",
"iiiiii     6uuuue@      iiiiiiiiiii     u@    iiiiiiiiiiiiii    ,uu<     iiiiiiiiiiiiii    6,      iiiiiiiiiii    @euuuu9       iiiiiiiiiiii",
"iiiiii      &46:        iiiiiiiiiii     u4     iiiiiiiiiiiii    6uu6     iiiiiiiiiiiii     t,      iiiiiiiiiii      :64&        iiiiiiiiiiii",
"iiiiiii                 iiiiiiiiiii     ur     iiiiiiiiiiiii    wuue     iiiiiiiiiiiii    <u,     iiiiiiiiiiiii                 iiiiiiiiiiii",
"iiiiiiii                iiiiiiiiiii     uu:     iiiiiiiiiii     tuuy      iiiiiiiiiii     wu,     iiiiiiiiiiiii                iiiiiiiiiiiii",
"iiiiiiiii               iiiiiiiiiii     uuq     iiiiiiiiiii    @uuuu&     iiiiiiiiiii    &uu,     iiiiiiiiiiii                 iiiiiiiiiiiii",
"iiiiiiiiiii            iiiiiiiiiiii     uuy@    iiiiiiiiiii    ,uuuu<     iiiiiiiiiii    9uu,     iiiiiiiiiiii                iiiiiiiiiiiiii",
"iiiiiiiiiiiii          iiiiiiiiiiii     uuu2     iiiiiiiiii    6uuuu6     iiiiiiiiii     yuu,     iiiiiiiiiii               iiiiiiiiiiiiiiii",
"iiiiiiiiiiiii           iiiiiiiiiii     uuur     iiiiiiiiii    wuuuue     iiiiiiiiii    2uuu,     iiiiiiiiiii              iiiiiiiiiiiiiiiii",
"iiiiiiiiiiiiii    :      iiiiiiiiii     uuuu:     iiiiiiii     tuuuuy      iiiiiiii     euuu,     iiiiiiiiii     :        iiiiiiiiiiiiiiiiii",
"iiiiiiiiiiiiii    2<     iiiiiiiiii     uuuu9     iiiiiiii    @uuuuuu&     iiiiiiii    &uuuu,     iiiiiiiii     ,4        iiiiiiiiiiiiiiiiii",
"iiiiiiiiiiiiii    ,t@     iiiiiiiii     uuuuy     iiiiiiii    ,uuuuuu<     iiiiiii     9uuuu,     iiiiiiiii    @t,       iiiiiiiiiiiiiiiiiii",
"iiiiiiiiiiiiii     u9     iiiiiiiii     uuuuu2     iiiiiii    6uuuuuu6     iiiiiii    @yuuuu,     iiiiiiii     6u@      iiiiiiiiiiiiiiiiiiii",
"iiiiiiiiiiiiii     tu,     iiiiiiii     uuuuue     iiiiiii    wuuuuuue     iiiiiii    2uuuuu,     iiiiiii     :uy       iiiiiiiiiiiiiiiiiiii",
"iiiiiiiiiiiiiii    eur      iiiiiii     uuuuuu&    iiiiii     tuuuuuuy     iiiiii     ruuuuu,     iiiiiii     rue       iiiiiiiiiiiiiiiiiiii",
"iiiiiiiiiiiiiii    6uu6     iiiiiii     uuuuuu9     iiiii    @uuuuuuuu&     iiiii    :uuuuuu,     iiiiii     4uu9       iiiiiiiiiiiiiiiiiiii",
"iiiiiiiiiiiiiii    2uuu&     iiiiii     uuuuuuy     iiiii    ,uuuuuuuu<     iiii     quuuuuu,     iiiii     &yuu4      iiiiiiiiiiiiiiiiiiiii",
"iiiiiiiiiiiiiii    ,uuue      iiiii     uuuuuuu<     iiii    6uuuuuuuu6     iiii    @yuuuuuu,     iiiii     euuu,      iiiiiiiiiiiiiiiiiiiii",
"iiiiiiiiiiiiiii     uuuu4     iiiii     uuuuuuuw     iiii    wuuuuuuuue     iii     2uuuuuuu,     iiii     <uuuu@      iiiiiiiiiiiiiiiiiiiii",
"iiiiiiiiiiiiiii     tuuuy@     iiii     uuuuuuuu&     ii     tuuuuuuuuy      ii     tuuuuuuu,     iii     @yuuuy       iiiiiiiiiiiiiiiiiiiii",
"iiiiiiiiiiiiiiii    euuuuw     iiii     uuuuuuuu6     ii    @uuuuuuuuuu&     ii    ,uuuuuuuu,     iii     quuuue       iiiiiiiiiiiiiiiiiiiii",
"iiiiiiiiiiiiiiii    6uuuuu<     iii     uuuuuuuut     ii    ,uuuuuuuuuu<     i     quuuuuuuu,     ii     ,uuuuu9       iiiiiiiiiiiiiiiiiiiii",
"iiiiiiiiiiiiiiii    2uuuuut@     ii     uuuuuuuuu<          6uuuuuuuuuu6          @uuuuuuuuu,     i     @tuuuuu4      iiiiiiiiiiiiiiiiiiiiii",
"iiiiiiiiiiiiiiii    ,uuuuuu9     ii     uuuuuuuuuw          wuuuuuuuuuue          4uuuuuuuuu,           6uuuuuu,      iiiiiiiiiiiiiiiiiiiiii",
"iiiiiiiiiiiiiiii     uuuuuuu,     i     uuuuuuuuuu@         tuuuuuuuuuuy          tuuuuuuuuu,          :uuuuuuu@      iiiiiiiiiiiiiiiiiiiiii",
"iiiiiiiiiiiiiiii     tuuuuuur           uuuuuuuuuu4        @uuuuuuuuuuuu&        ,uuuuuuuuuu,          ruuuuuuy       iiiiiiiiiiiiiiiiiiiiii",
"iiiiiiiiiiiiiiiii    euuuuuuu6          uuuuuuuuuut        ,uuuuuuuuuuuu<        wuuuuuuuuuu,         4uuuuuuue       iiiiiiiiiiiiiiiiiiiiii",
"iiiiiiiiiiiiiiiii    6uuuuuuuu&         uuuuuuuuuuu,       6uuuuuuuuuuuu6       &uuuuuuuuuuu,        &yuuuuuuu9       iiiiiiiiiiiiiiiiiiiiii",
"iiiiiiiiiiiiiiiii    2uuuuuuuue         uuuuuuuuuuuq       wuuuuuuuuuuuue       6uuuuuuuuuuu,        euuuuuuuu4      iiiiiiiiiiiiiiiiiiiiiii",
"iiiiiiiiiiiiiiiii    ,uuuuuuuuu4        uuuuuuuuuuuu@      tuuuuuuuuuuuuy       tuuuuuuuuuuu,       <uuuuuuuuu,      iiiiiiiiiiiiiiiiiiiiiii",
"iiiiiiiiiiiiiiiii     uuuuuuuuuy@       uuuuuuuuuuuu4     @uuuuuuuuuuuuuu&     <uuuuuuuuuuuu,      @yuuuuuuuuu@      iiiiiiiiiiiiiiiiiiiiiii",
"iiiiiiiiiiiiiiiii     tuuuuuuuuuw       uuuuuuuuuuuur     ,uuuuuuuuuuuuuu<     wuuuuuuuuuuuu,      quuuuuuuuuy       iiiiiiiiiiiiiiiiiiiiiii",
"iiiiiiiiiiiiiiiiii    euuuuuuuuuu<      uuuuuuuuure99$    &,,,,,,,,,,,,,,&     2270eeetuuuuu,     ,uuuuuuuuuue       iiiiiiiiiiiiiiiiiiiiiii",
"iiiiiiiiiiiiiiiiii    6uuuuuuuuuut@     <,;$@o                                            $&O     ruuuuuuuuuu9      iiiiiiiiiiiiiiiiiiiiiiii",
"iiiiiiiiiiiiiiiiii    2uuuuuy97,>@.                                                                 $;28eyuuu4      iiiiiiiiiiiiiiiiiiiiiiii",
"iiiiiiiiiiiiiiiiii    -5,=@                                                                               X&1%      iiiiiiiiiiiiiiiiiiiiiiii",
"iiiiiiiiiiiiiiiiii                                                                                                  iiiiiiiiiiiiiiiiiiiiiiii",
"iiiiiiiiiiiiiiiiii                        @,,,6669eeeeruuuuuuuuuuuuuuuuuuuuuureeeeq666<,,@                          iiiiiiiiiiiiiiiiiiiiiiii",
"iiiiiiiiiiiiiiiiiii              :,46qeeuuuuuuuuuuuuuuuuuuuuuuuuuuuuuuuuuuuuuuuuuuuuuuuuuuuueeq64,,                 iiiiiiiiiiiiiiiiiiiiiiii",
"iiiiiiiiiiiiiiiiiii       ,26weyuuuuuuuuuuuuuuuuuuuuuuuuuuuuuuuuuuuuuuuuuuuuuuuuuuuuuuuuuuuuuuuuuuuuuew62,          iiiiiiiiiiiiiiiiiiiiiiii",
"iiiiiiiiiiiiiiiiiii    <tuuuuuuuuuuuuuuuuuuuuuuuuuuuuuuuuuuuuuuuuuuuuuuuuuuuuuuuuuuuuuuuuuuuuuuuuuuuuuuuuuuy2      iiiiiiiiiiiiiiiiiiiiiiiii",
"iiiiiiiiiiiiiiiiiii    @yuuuuuuuuuuuuuuuuuuuuuuuuuuuuuuuuuuuuuuuuuuuuuuuuuuuuuuuuuuuuuuuuuuuuuuuuuuuuuuuuuuu&      iiiiiiiiiiiiiiiiiiiiiiiii",
"iiiiiiiiiiiiiiiiiii     2uuuuuuuuuuuuuuuuuuuuuuuuuuuuuuuuuuuuuuuuuuuuuuuuuuuuuuuuuuuuuuuuuuuuuuuuuuuuuuuuuu2       iiiiiiiiiiiiiiiiiiiiiiiii",
"iiiiiiiiiiiiiiiiiiii     2uuuuuuuuuuuuuuuuuuuuuuuuuuuuuuuuuuuuuuuuuuuuuuuuuuuuuuuuuuuuuuuuuuuuuuuuuuuuuuuu2        iiiiiiiiiiiiiiiiiiiiiiiii",
"iiiiiiiiiiiiiiiiiiii      2uuuuuuuuuuuuuuuuuuuuuuuuuuuuuuuuuuuuuuuuuuuuuuuuuuuuuuuuuuuuuuuuuuuuuuuuuuuuuu2         iiiiiiiiiiiiiiiiiiiiiiiii",
"iiiiiiiiiiiiiiiiiiiii      2uuuuuuuuuuuuuuuuuuuuuuuuuuuuuuuuuuuuuuuuuuuuuuuuuuuuuuuuuuuuuuuuuuuuuuuuuuuu2         iiiiiiiiiiiiiiiiiiiiiiiiii",
"iiiiiiiiiiiiiiiiiiiiii      2uuuuuuuuuuuuuuuuuuuuuuuuuuuuuuuuuuuuuuuuuuuuuuuuuuuuuuuuuuuuuuuuuuuuuuuuuu6          iiiiiiiiiiiiiiiiiiiiiiiiii",
"iiiiiiiiiiiiiiiiiiiiiii      quuuuuuuuuureew6666<,,,,,,&                    &,,,,,,<6666weeruuuuuuuuuuw          iiiiiiiiiiiiiiiiiiiiiiiiiii",
"iiiiiiiiiiiiiiiiiiiiiiii     @tyeq6<,&                                                        &,<69eyy@         iiiiiiiiiiiiiiiiiiiiiiiiiiii",
"iiiiiiiiiiiiiiiiiiiiiiiii     o                                                                      O         iiiiiiiiiiiiiiiiiiiiiiiiiiiii",
"iiiiiiiiiiiiiiiiiiiiiiiiii                                                                                    iiiiiiiiiiiiiiiiiiiiiiiiiiiiii",
"iiiiiiiiiiiiiiiiiiiiiiiiii                      @,,,,,,2666666666666666666664,,,,,,@                         iiiiiiiiiiiiiiiiiiiiiiiiiiiiiii",
"iiiiiiiiiiiiiiiiiiiiiiiiiii        @,,669eeeyuuuuuuuuuuuuuuuuuuuuuuuuuuuuuuuuuuuuuuuuuuyeee966,,@            iiiiiiiiiiiiiiiiiiiiiiiiiiiiiii",
"iiiiiiiiiiiiiiiiiiiiiiiiiii      7uuuuuuuuuuuuuuuuuuuuuuuuuuuuuuuuuuuuuuuuuuuuuuuuuuuuuuuuuuuuuuuu9         iiiiiiiiiiiiiiiiiiiiiiiiiiiiiiii",
"iiiiiiiiiiiiiiiiiiiiiiiiiiii     &uuuuuuuuuuuuuuuuuuuuuuuuuuuuuuuuuuuuuuuuuuuuuuuuuuuuuuuuuuuuuuuu,        iiiiiiiiiiiiiiiiiiiiiiiiiiiiiiiii",
"iiiiiiiiiiiiiiiiiiiiiiiiiiiii     ruuuuuuuuuuuuuuuuuuuuuuuuuuuuuuuuuuuuuuuuuuuuuuuuuuuuuuuuuuuuuut         iiiiiiiiiiiiiiiiiiiiiiiiiiiiiiiii",
"iiiiiiiiiiiiiiiiiiiiiiiiiiiii     euuuuuuuuuuuuuuuuuuuuuuuuuuuuuuuuuuuuuuuuuuuuuuuuuuuuuuuuuuuuuue        iiiiiiiiiiiiiiiiiiiiiiiiiiiiiiiiii",
"iiiiiiiiiiiiiiiiiiiiiiiiiiiiii    euuuuuuuuuuuuuuuuuuuuuuuuuuuuuuuuuuuuuuuuuuuuuuuuuuuuuuuuuuuuuue        iiiiiiiiiiiiiiiiiiiiiiiiiiiiiiiiii",
"iiiiiiiiiiiiiiiiiiiiiiiiiiiiii    euuuuuuuuuuuuuuuuuuuureeeeeeeeeeeeeeeeeeeeeuuuuuuuuuuuuuuuuuuuue       iiiiiiiiiiiiiiiiiiiiiiiiiiiiiiiiiii",
"iiiiiiiiiiiiiiiiiiiiiiiiiiiii     yuuuuutee966<,,,                                ,,,<669eetuuuuuu       iiiiiiiiiiiiiiiiiiiiiiiiiiiiiiiiiii",
"iiiiiiiiiiiiiiiiiiiiiiiiiiiii    +96<,@                                                      @,<69*      iiiiiiiiiiiiiiiiiiiiiiiiiiiiiiiiiii",
"iiiiiiiiiiiiiiiiiiiiiiiiiiiii                                                                            iiiiiiiiiiiiiiiiiiiiiiiiiiiiiiiiiii",
"iiiiiiiiiiiiiiiiiiiiiiiiiiiii                                                                            iiiiiiiiiiiiiiiiiiiiiiiiiiiiiiiiiii",
"iiiiiiiiiiiiiiiiiiiiiiiiiiii                  @,,,26666qeeeeeeeeeeeeeeeeeeeeq66664,,,@                   iiiiiiiiiiiiiiiiiiiiiiiiiiiiiiiiiii",
"iiiiiiiiiiiiiiiiiiiiiiiiiii         @,<66eeruuuuuuuuuuuuuuuuuuuuuuuuuuuuuuuuuuuuuuuuuuuutee66<,@          iiiiiiiiiiiiiiiiiiiiiiiiiiiiiiiiii",
"iiiiiiiiiiiiiiiiiiiiiiiiiii    +3wruuuuuuuuuuuuuuuuuuuuuuuuuuuuuuuuuuuuuuuuuuuuuuuuuuuuuuuuuuuuuure4#     iiiiiiiiiiiiiiiiiiiiiiiiiiiiiiiiii",
"iiiiiiiiiiiiiiiiiiiiiiiiii     euuuuuuuuuuuuuuuuuuuuuuuuuuuuuuuuuuuuuuuuuuuuuuuuuuuuuuuuuuuuuuuuuuuur     iiiiiiiiiiiiiiiiiiiiiiiiiiiiiiiiii",
"iiiiiiiiiiiiiiiiiiiiiiiiii    :uuuuuuuuuuuuuuuuuuuuuuuuuuuuuuuuuuuuuuuuuuuuuuuuuuuuuuuuuuuuuuuuuuuuuu<     iiiiiiiiiiiiiiiiiiiiiiiiiiiiiiiii",
"iiiiiiiiiiiiiiiiiiiiiiiiii    9uuuuuuuuuuuuuuuuuuuuuuuuuuuuuuuuuuuuuuuuuuuuuuuuuuuuuuuuuuuuuuuuuuuuuuq     iiiiiiiiiiiiiiiiiiiiiiiiiiiiiiiii",
"iiiiiiiiiiiiiiiiiiiiiiiii     ruuuuuuuuuuuuuuuuuuuuuuuuuuuuuuuuuuuuuuuuuuuuuuuuuuuuuuuuuuuuuuuuuuuuuut     iiiiiiiiiiiiiiiiiiiiiiiiiiiiiiiii",
"iiiiiiiiiiiiiiiiiiiiiiiii     uuuuuuuuuuuuuuuuuuuuuuuuuuuuuuuuuuuuuuuuuuuuuuuuuuuuuuuuuuuuuuuuuuuuuuuu@    iiiiiiiiiiiiiiiiiiiiiiiiiiiiiiiii",
"iiiiiiiiiiiiiiiiiiiiiiiii    :uuuuuuuuuuuuuuuuuuuuuuuuuuuuuuuuuuuuuuuuuuuuuuuuuuuuuuuuuuuuuuuuuuuuuuuu,     iiiiiiiiiiiiiiiiiiiiiiiiiiiiiiii",
"iiiiiiiiiiiiiiiiiiiiiiiii    ,uuuuuuuuuuuuuuuuuuuuuuuuuuuuuuuuuuuuuuuuuuuuuuuuuuuuuuuuuuuuuuuuuuuuuuuu,     iiiiiiiiiiiiiiiiiiiiiiiiiiiiiiii",
"iiiiiiiiiiiiiiiiiiiiiiiii    ,uuuuuuuuuuuuuuuuuuuuuuuuuuuuuuuuuuuuuuuuuuuuuuuuuuuuuuuuuuuuuuuuuuuuuuuu6     iiiiiiiiiiiiiiiiiiiiiiiiiiiiiiii",
"iiiiiiiiiiiiiiiiiiiiiiiii    ,uuuuuuuuuuuuuuuuuuuuuuuuuuuuuuuuuuuuuuuuuuuuuuuuuuuuuuuuuuuuuuuuuuuuuuuu6     iiiiiiiiiiiiiiiiiiiiiiiiiiiiiiii",
"iiiiiiiiiiiiiiiiiiiiiiiii    ,uuuuuuuuuuuuuuuuuuuuuuuuuuuuuuuuuuuuuuuuuuuuuuuuuuuuuuuuuuuuuuuuuuuuuuuu6     iiiiiiiiiiiiiiiiiiiiiiiiiiiiiiii",
"iiiiiiiiiiiiiiiiiiiiiiiii    ,uuuuuuuuuuuuuuuuuuuuuuuuuuuuuuuuuuuuuuuuuuuuuuuuuuuuuuuuuuuuuuuuuuuuuuuu6      iiiiiiiiiiiiiiiiiiiiiiiiiiiiiii",
"iiiiiiiiiiiiiiiiiiiiiiiii    ,uuuuuuuuuuuuuuuuuuuuuuuuuuuuuuuuuuuuuuuuuuuuuuuuuuuuuuuuuuuuuuuuuuuuuuuu,      iiiiiiiiiiiiiiiiiiiiiiiiiiiiiii",
"iiiiiiiiiiiiiiiiiiiiiiiii    @,26qeruuuuuuuuuuuuuuuuuuuuuuuuuuuuuuuuuuuuuuuuuuuuuuuuuuuuuuuuuuuureq62,@      iiiiiiiiiiiiiiiiiiiiiiiiiiiiiii",
"iiiiiiiiiiiiiiiiiiiiiiiii             :,,666weeeyuuuuuuuuuuuuuuuuuuuuuuuuuuuuuuuuuuyeeew666,,:              iiiiiiiiiiiiiiiiiiiiiiiiiiiiiiii",
"iiiiiiiiiiiiiiiiiiiiiiiiii                           @,,,,,,,,,,,,,,,,,,,,,,,,@                             iiiiiiiiiiiiiiiiiiiiiiiiiiiiiiii",
"iiiiiiiiiiiiiiiiiiiiiiiiii                                                                                  iiiiiiiiiiiiiiiiiiiiiiiiiiiiiiii",
"iiiiiiiiiiiiiiiiiiiiiiiiiiii                                                                               iiiiiiiiiiiiiiiiiiiiiiiiiiiiiiiii",
"iiiiiiiiiiiiiiiiiiiiiiiiiiiiiiiii                                                                         iiiiiiiiiiiiiiiiiiiiiiiiiiiiiiiiii",
"iiiiiiiiiiiiiiiiiiiiiiiiiiiiiiiiiiiiiiii                                                            iiiiiiiiiiiiiiiiiiiiiiiiiiiiiiiiiiiiiiii",
"iiiiiiiiiiiiiiiiiiiiiiiiiiiiiiiiiiiiiiiiiiiiiiiiiiii                                    iiiiiiiiiiiiiiiiiiiiiiiiiiiiiiiiiiiiiiiiiiiiiiiiiiii",
"iiiiiiiiiiiiiiiiiiiiiiiiiiiiiiiiiiiiiiiiiiiiiiiiiiiiiiiiiiiiiiiiiiiiiiiiiiiiiiiiiiiiiiiiiiiiiiiiiiiiiiiiiiiiiiiiiiiiiiiiiiiiiiiiiiiiiiiiiiii",
"iiiiiiiiiiiiiiiiiiiiiiiiiiiiiiiiiiiiiiiiiiiiiiiiiiiiiiiiiiiiiiiiiiiiiiiiiiiiiiiiiiiiiiiiiiiiiiiiiiiiiiiiiiiiiiiiiiiiiiiiiiiiiiiiiiiiiiiiiiii",
"iiiiiiiiiiiiiiiiiiiiiiiiiiiiiiiiiiiiiiiiiiiiiiiiiiiiiiiiiiiiiiiiiiiiiiiiiiiiiiiiiiiiiiiiiiiiiiiiiiiiiiiiiiiiiiiiiiiiiiiiiiiiiiiiiiiiiiiiiiii",
"iiiiiiiiiiiiiiiiiiiiiiiiiiiiiiiiiiiiiiiiiiiiiiiiiiiiiiiiiiiiiiiiiiiiiiiiiiiiiiiiiiiiiiiiiiiiiiiiiiiiiiiiiiiiiiiiiiiiiiiiiiiiiiiiiiiiiiiiiiii",
"iiiiiiiiiiiiiiiiiiiiiiiiiiiiiiiiiiiiiiiiiiiiiiiiiiiiiiiiiiiiiiiiiiiiiiiiiiiiiiiiiiiiiiiiiiiiiiiiiiiiiiiiiiiiiiiiiiiiiiiiiiiiiiiiiiiiiiiiiiii",
"iiiiiiiiiiiiiiiiiiiiiiiiiiiiiiiiiiiiiiiiiiiiiiiiiiiiiiiiiiiiiiiiiiiiiiiiiiiiiiiiiiiiiiiiiiiiiiiiiiiiiiiiiiiiiiiiiiiiiiiiiiiiiiiiiiiiiiiiiiii",
"iiiiiiiiiiiiiiiiiiiiiiiiiiiiiiiiiiiiiiiiiiiiiiiiiiiiiiiiiiiiiiiiiiiiiiiiiiiiiiiiiiiiiiiiiiiiiiiiiiiiiiiiiiiiiiiiiiiiiiiiiiiiiiiiiiiiiiiiiiii",
"iiiiiiiiiiiiiiiiiiiiiiiiiiiiiiiiiiiiiiiiiiiiiiiiiiiiiiiiiiiiiiiiiiiiiiiiiiiiiiiiiiiiiiiiiiiiiiiiiiiiiiiiiiiiiiiiiiiiiiiiiiiiiiiiiiiiiiiiiiii",
"iiiiiiiiiiiiiiiiiiiiiiiiiiiiiiiiiiiiiiiiiiiiiiiiiiiiiiiiiiiiiiiiiiiiiiiiiiiiiiiiiiiiiiiiiiiiiiiiiiiiiiiiiiiiiiiiiiiiiiiiiiiiiiiiiiiiiiiiiiii",
"iiiiiiiiiiiiiiiiiiiiiiiiiiiiiiiiiiiiiiiiiiiiiiiiiiiiiiiiiiiiiiiiiiiiiiiiiiiiiiiiiiiiiiiiiiiiiiiiiiiiiiiiiiiiiiiiiiiiiiiiiiiiiiiiiiiiiiiiiiii",
"iiiiiiiiiiiiiiiiiiiiiiiiiiiiiiiiiiiiiiiiiiiiiiiiiiiiiiiiiiiiiiiiiiiiiiiiiiiiiiiiiiiiiiiiiiiiiiiiiiiiiiiiiiiiiiiiiiiiiiiiiiiiiiiiiiiiiiiiiiii"
};
